<svg width="98" height="98" viewBox="0 0 98 98" fill="none" xmlns="http://www.w3.org/2000/svg">
<path d="M97.4375 49C97.4375 75.7578 75.7578 97.4375 49 97.4375C22.2422 97.4375 0.5625 75.7578 0.5625 49C0.5625 22.2422 22.2422 0.5625 49 0.5625C75.7578 0.5625 97.4375 22.2422 97.4375 49ZM69.3906 43.3555L55.25 58.1016V22.4375C55.25 19.8398 53.1602 17.75 50.5625 17.75H47.4375C44.8398 17.75 42.75 19.8398 42.75 22.4375V58.1016L28.6094 43.3555C26.793 41.4609 23.7656 41.4219 21.9102 43.2773L19.7812 45.4258C17.9453 47.2617 17.9453 50.2305 19.7812 52.0469L45.6797 77.9648C47.5156 79.8008 50.4844 79.8008 52.3008 77.9648L78.2383 52.0469C80.0742 50.2109 80.0742 47.2422 78.2383 45.4258L76.1094 43.2773C74.2344 41.4219 71.207 41.4609 69.3906 43.3555Z" fill="#35B39A"/>
</svg>
