<svg width="525" height="75" viewBox="0 0 525 75" fill="none" xmlns="http://www.w3.org/2000/svg">
<g clip-path="url(#clip0)">
<path d="M24.4213 -3.16322e-05C27.0092 -3.16322e-05 29.1361 0.383404 30.8022 1.14811C32.4683 1.91281 33.9483 2.80749 35.2422 3.82781C36.0255 4.41705 36.6249 4.4842 37.036 4.03361C37.4471 3.58302 37.7305 2.51287 37.8885 0.823159H39.2408C39.1608 2.31574 39.1045 4.14193 39.0656 6.29956C39.0266 8.45935 39.0072 11.3037 39.0072 14.8369H37.6526C37.419 13.0714 37.1636 11.5897 36.8888 10.3917C36.6141 9.1959 36.2311 8.16474 35.7421 7.30255C35.2509 6.4382 34.5758 5.61284 33.7125 4.82864C32.6544 3.65018 31.3908 2.77716 29.9216 2.20742C28.4502 1.63985 26.9096 1.3539 25.3041 1.3539C23.2637 1.3539 21.4916 1.89548 19.9813 2.97429C18.471 4.05311 17.2182 5.52402 16.2164 7.3892C15.2189 9.25439 14.4724 11.4228 13.9834 13.8946C13.4923 16.3685 13.2477 18.9984 13.2477 21.7842C13.2477 24.6503 13.5117 27.3105 14.0418 29.7627C14.572 32.2171 15.3552 34.3553 16.3938 36.1815C17.4324 38.0055 18.7264 39.4287 20.2756 40.4491C21.8248 41.4716 23.6164 41.9806 25.6568 41.9806C27.1065 41.9806 28.5974 41.7055 30.125 41.1553C31.6547 40.605 32.9097 39.7623 33.8899 38.6229C35.1838 37.4466 36.0645 36.0428 36.5362 34.4138C37.0057 32.7847 37.3779 30.6162 37.6526 27.9084H39.0072C39.0072 31.5976 39.0266 34.5697 39.0656 36.827C39.1045 39.0865 39.1608 40.9798 39.2408 42.5092H37.8885C37.7305 40.8238 37.4666 39.7623 37.0944 39.3312C36.7222 38.898 36.1034 38.9565 35.2422 39.5067C33.7925 40.527 32.2519 41.4196 30.627 42.1864C28.9977 42.9511 26.9096 43.3324 24.3629 43.3324C20.3643 43.3324 16.8547 42.4897 13.8363 40.8022C10.8157 39.1168 8.47452 36.6819 6.80844 33.5017C5.14235 30.3238 4.30931 26.4938 4.30931 22.0204C4.30931 17.625 5.17048 13.7776 6.89715 10.4805C8.62166 7.18341 10.9931 4.61201 14.0116 2.76633C17.03 0.922812 20.5006 -3.16322e-05 24.4213 -3.16322e-05Z" fill="#AFAFAF"/>
<path d="M68.6461 25.5534V26.7297H51.1198L51.7083 25.5534H68.6461ZM63.5289 0.647521L77.8204 37.5634C78.409 38.9758 79.0451 39.9506 79.731 40.4792C80.4169 41.01 81.0552 41.2959 81.6416 41.3327V42.509C80.6225 42.431 79.3978 42.3834 77.9676 42.3639C76.5352 42.3444 75.0746 42.3336 73.586 42.3336C71.8593 42.3336 70.2538 42.3444 68.763 42.3639C67.2722 42.3834 66.0583 42.431 65.1171 42.509V41.3327C67.1164 41.2547 68.3908 40.9125 68.9404 40.3037C69.4878 39.6928 69.371 38.3887 68.5877 36.3871L58.2364 8.42019L59.2944 7.12475L49.8865 31.5584C48.8652 34.1493 48.3762 36.1423 48.4151 37.5352C48.4541 38.9281 48.9236 39.8986 49.828 40.4489C50.7282 40.9991 52.0026 41.2959 53.6492 41.3327V42.509C52.3942 42.431 51.1804 42.3834 50.0033 42.3639C48.8262 42.3444 47.6513 42.3336 46.4742 42.3336C45.6109 42.3336 44.7995 42.3444 44.0335 42.3639C43.2697 42.3834 42.5925 42.431 42.0061 42.509V41.3327C42.8673 41.1356 43.7198 40.6265 44.5637 39.8012C45.4053 38.9758 46.2189 37.546 47.0044 35.5032L60.4715 0.647521C60.941 0.686515 61.4517 0.706008 62.0013 0.706008C62.5487 0.706008 63.0594 0.686515 63.5289 0.647521" fill="#AFAFAF"/>
<path d="M131.395 0.824063V2.00253C130.14 2.04152 129.179 2.18883 128.513 2.44445C127.846 2.70007 127.405 3.17016 127.191 3.85688C126.974 4.54359 126.866 5.61375 126.866 7.06516V36.269C126.866 37.6814 126.983 38.7408 127.219 39.4491C127.455 40.1553 127.896 40.6276 128.543 40.8616C129.188 41.0955 130.14 41.2558 131.395 41.3338V42.5101C130.374 42.4321 129.082 42.3823 127.513 42.3628C125.944 42.3455 124.356 42.3346 122.748 42.3346C120.985 42.3346 119.33 42.3455 117.781 42.3628C116.231 42.3823 114.987 42.4321 114.046 42.5101V41.3338C115.379 41.2558 116.389 41.0955 117.075 40.8616C117.761 40.6276 118.222 40.1553 118.458 39.4491C118.691 38.7408 118.81 37.6814 118.81 36.269V4.24031L119.222 4.2988L104.636 42.6877H103.697L88.1696 4.59342V33.7973C88.1696 35.6798 88.2886 37.142 88.5245 38.1818C88.7582 39.2238 89.2775 39.969 90.0824 40.4196C90.8851 40.8724 92.1098 41.1757 93.7564 41.3338V42.5101C93.0121 42.4321 92.0514 42.3823 90.8743 42.3628C89.6994 42.3455 88.5807 42.3346 87.5248 42.3346C86.5836 42.3346 85.6316 42.3455 84.6709 42.3628C83.7102 42.3823 82.9161 42.4321 82.2907 42.5101V41.3338C83.5825 41.1757 84.554 40.8811 85.201 40.45C85.8479 40.0167 86.2785 39.3105 86.4949 38.3292C86.7091 37.3478 86.8173 35.9939 86.8173 34.2673V7.06516C86.8173 5.61375 86.7091 4.54359 86.4949 3.85688C86.2785 3.17016 85.8479 2.70007 85.201 2.44445C84.554 2.18883 83.5825 2.04152 82.2907 2.00253V0.824063C82.9161 0.863056 83.7102 0.904217 84.6709 0.94321C85.6316 0.982203 86.5836 1.0017 87.5248 1.0017C88.9745 1.0017 90.3853 0.982203 91.7571 0.94321C93.1289 0.904217 94.345 0.863056 95.403 0.824063L108.048 32.4412L106.754 33.5005L119.044 1.0017H120.896H122.748C124.356 1.0017 125.944 0.982203 127.513 0.94321C129.082 0.904217 130.374 0.863056 131.395 0.824063Z" fill="#AFAFAF"/>
<path d="M135.687 0.824089C136.668 0.863082 137.923 0.904242 139.45 0.943236C140.98 0.982229 142.51 1.00173 144.037 1.00173C145.959 1.00173 147.781 0.982229 149.507 0.943236C151.232 0.904242 152.448 0.882579 153.153 0.882579C158.407 0.882579 162.319 1.96356 164.885 4.12119C167.453 6.28099 168.737 9.06685 168.737 12.4831C168.737 13.8955 168.481 15.3773 167.973 16.9283C167.464 18.4794 166.581 19.9113 165.326 21.2241C164.071 22.5412 162.358 23.6114 160.181 24.4346C158.004 25.2577 155.23 25.6715 151.859 25.6715H145.978V24.493H151.273C153.742 24.493 155.633 23.9645 156.946 22.903C158.26 21.8437 159.142 20.4507 159.593 18.7242C160.043 16.9955 160.27 15.1303 160.27 13.1308C160.27 9.40046 159.662 6.6146 158.446 4.76891C157.232 2.92323 155.133 2.00256 152.154 2.00256C150.546 2.00256 149.496 2.33616 149.007 3.00338C148.516 3.6706 148.272 5.02454 148.272 7.06519V36.0329C148.272 37.5255 148.428 38.6433 148.744 39.3885C149.055 40.1359 149.663 40.6276 150.565 40.8616C151.468 41.0955 152.762 41.2342 154.447 41.2732V42.5101C153.309 42.4321 151.84 42.3823 150.035 42.3628C148.233 42.3455 146.37 42.3347 144.448 42.3347C142.804 42.3347 141.216 42.3455 139.686 42.3628C138.158 42.3823 136.823 42.4321 135.687 42.5101V41.3338C136.981 41.2558 137.951 41.0955 138.598 40.8616C139.247 40.6276 139.675 40.1554 139.892 39.4492C140.106 38.7408 140.216 37.6815 140.216 36.269V7.06519C140.216 5.61377 140.106 4.54362 139.892 3.8569C139.675 3.17019 139.247 2.7001 138.598 2.44448C137.951 2.18885 136.981 2.04155 135.687 2.00256V0.824089Z" fill="#AFAFAF"/>
<path d="M192.731 1.05996C190.418 1.05996 188.408 1.94381 186.703 3.70934C184.997 5.47704 183.673 7.90979 182.732 11.0098C181.793 14.1119 181.323 17.7036 181.323 21.7849C181.323 25.9464 181.851 29.5663 182.909 32.6489C183.968 35.7294 185.4 38.1058 187.202 39.7717C189.005 41.4419 190.987 42.2737 193.142 42.2737C195.455 42.2737 197.465 41.3921 199.17 39.6244C200.875 37.8588 202.199 35.4153 203.141 32.2936C204.082 29.1742 204.551 25.5933 204.551 21.5488C204.551 17.3505 204.023 13.7198 202.963 10.6567C201.905 7.59568 200.483 5.23225 198.701 3.56203C196.915 1.89399 194.927 1.05996 192.731 1.05996ZM192.967 0.000639755C196.965 0.000639755 200.475 0.845497 203.493 2.53304C206.512 4.22059 208.853 6.64467 210.521 9.80313C212.187 12.9638 213.02 16.8024 213.02 21.3148C213.02 25.7102 212.166 29.5576 210.463 32.8547C208.755 36.1518 206.384 38.7232 203.346 40.5667C200.306 42.4124 196.827 43.3331 192.908 43.3331C188.907 43.3331 185.4 42.4904 182.379 40.8028C179.361 39.1153 177.02 36.6804 175.354 33.5024C173.685 30.3223 172.852 26.4944 172.852 22.021C172.852 17.6235 173.716 13.7783 175.44 10.4812C177.167 7.18408 179.538 4.61269 182.557 2.767C185.575 0.923483 189.044 0.000639755 192.967 0.000639755" fill="#AFAFAF"/>
<path d="M231.838 0.11851C234.034 0.11851 235.72 0.35247 236.895 0.824723C238.072 1.29481 239.091 1.80605 239.954 2.35629C240.424 2.63141 240.807 2.83505 241.101 2.97369C241.395 3.11017 241.679 3.17949 241.953 3.17949C242.581 3.17949 243.011 2.3173 243.247 0.588594H244.6C244.561 1.33597 244.511 2.19815 244.453 3.17949C244.394 4.16082 244.355 5.4671 244.333 7.09615C244.316 8.72521 244.305 10.8742 244.305 13.543H242.953C242.836 11.5392 242.395 9.61772 241.629 7.77203C240.865 5.92851 239.785 4.40561 238.396 3.20765C237.003 2.01402 235.228 1.41395 233.073 1.41395C231.152 1.41395 229.553 1.98152 228.281 3.121C227.006 4.26047 226.37 5.78987 226.37 7.71355C226.37 9.3621 226.781 10.7442 227.603 11.8642C228.428 12.982 229.594 14.063 231.102 15.1028C232.61 16.1426 234.406 17.3297 236.483 18.6642C238.405 19.9206 240.131 21.1662 241.659 22.4032C243.189 23.638 244.394 25.0028 245.275 26.4953C246.158 27.9879 246.599 29.8119 246.599 31.9717C246.599 34.5236 245.971 36.6423 244.719 38.3298C243.462 40.0174 241.776 41.2738 239.66 42.0992C237.541 42.9224 235.228 43.3318 232.721 43.3318C230.405 43.3318 228.575 43.0978 227.223 42.6277C225.868 42.1555 224.702 41.6659 223.724 41.1547C222.86 40.6044 222.192 40.3293 221.722 40.3293C221.095 40.3293 220.664 41.1958 220.431 42.9224H219.076C219.154 42.019 219.204 40.9597 219.223 39.7422C219.243 38.5248 219.262 36.9455 219.282 35.0024C219.303 33.0614 219.312 30.5983 219.312 27.6131H220.664C220.82 30.126 221.261 32.4721 221.988 34.6493C222.713 36.8286 223.83 38.5854 225.34 39.9199C226.848 41.2543 228.858 41.9215 231.368 41.9215C233.407 41.9215 235.151 41.341 236.602 40.1842C238.052 39.0274 238.779 37.2705 238.779 34.9136C238.779 32.522 237.955 30.5181 236.308 28.9086C234.662 27.299 232.504 25.67 229.839 24.0236C227.995 22.8451 226.271 21.6472 224.663 20.4297C223.055 19.2144 221.772 17.8301 220.811 16.2791C219.851 14.7302 219.37 12.8563 219.37 10.6575C219.37 8.22262 219.959 6.2318 221.136 4.68073C222.311 3.13183 223.849 1.98153 225.751 1.23632C227.653 0.491114 229.681 0.11851 231.838 0.11851Z" fill="#AFAFAF"/>
<path d="M304.761 -3.16322e-05C307.385 -3.16322e-05 309.562 0.717014 311.287 2.14894C313.011 3.58302 313.877 5.59335 313.877 8.18424C313.877 10.8531 312.972 12.9523 311.17 14.4838C309.365 16.0154 306.994 17.1722 304.055 17.9586C303.35 18.2337 302.484 18.5261 301.467 18.8402C300.446 19.1544 299.358 19.4793 298.202 19.8129C297.047 20.1465 295.948 20.4715 294.909 20.7834C293.871 21.0997 292.996 21.3921 292.291 21.6673C289.822 22.2955 287.86 23.0125 286.412 23.8162C284.96 24.6199 284.235 25.7291 284.235 27.1415C284.235 28.1228 284.549 28.9785 285.177 29.7021C285.804 30.4299 286.587 30.9693 287.529 31.3224C288.47 31.6756 289.389 31.8532 290.292 31.8532C290.763 31.8532 291.3 31.7839 291.912 31.6474C292.518 31.5088 292.901 31.3051 293.057 31.03C292.194 30.7917 291.488 30.3801 290.939 29.793C290.389 29.2038 290.116 28.4391 290.116 27.4946C290.116 26.3573 290.528 25.4756 291.352 24.8474C292.174 24.2192 293.174 23.905 294.349 23.905C295.606 23.905 296.595 24.2387 297.32 24.9059C298.044 25.5731 298.406 26.4764 298.406 27.6137C298.406 28.7922 298.036 29.7735 297.289 30.5577C296.547 31.3441 295.576 31.9225 294.379 32.2951C293.182 32.6677 291.902 32.854 290.528 32.854C289.117 32.854 287.784 32.5876 286.529 32.059C285.274 31.5282 284.253 30.7354 283.469 29.6739C282.686 28.6146 282.294 27.2217 282.294 25.4951C282.294 22.7872 283.303 20.6469 285.324 19.0764C287.343 17.508 290.134 16.2905 293.706 15.4262C294.643 15.1532 295.731 14.8564 296.967 14.5423C298.202 14.2282 299.466 13.8859 300.76 13.5112C302.054 13.1386 303.27 12.7378 304.408 12.3067C306.916 11.5593 308.796 10.7361 310.051 9.83279C311.306 8.92944 311.933 7.83113 311.933 6.53569C311.933 4.92613 311.256 3.60252 309.906 2.5627C308.554 1.52071 306.994 1.0008 305.23 1.0008C304.836 1.0008 304.495 1.03113 304.2 1.08962C303.906 1.14811 303.703 1.23692 303.584 1.3539C304.367 1.70701 304.966 2.19876 305.375 2.82699C305.791 3.45521 305.994 4.10293 305.994 4.77015C305.994 5.82947 305.592 6.67433 304.791 7.30255C303.986 7.93078 302.997 8.24273 301.82 8.24273C300.682 8.24273 299.71 7.93078 298.908 7.30255C298.105 6.67433 297.703 5.79048 297.703 4.65101C297.703 3.63068 298.016 2.76633 298.644 2.06012C299.269 1.3539 300.122 0.833994 301.201 0.500385C302.281 0.166775 303.465 -3.16322e-05 304.761 -3.16322e-05ZM282.236 0.883815C283.725 0.883815 284.941 1.01163 285.88 1.26508C286.823 1.52071 287.645 1.84565 288.351 2.23775C289.214 2.749 289.939 3.38372 290.528 4.15276C291.116 4.91746 291.408 5.79048 291.408 6.77181C291.408 7.90912 290.999 8.81246 290.175 9.47752C289.353 10.1469 288.392 10.4805 287.293 10.4805C286.274 10.4805 285.382 10.1859 284.616 9.59666C283.852 9.0096 283.469 8.16474 283.469 7.06426C283.469 6.08509 283.796 5.23158 284.441 4.5037C285.088 3.77799 285.943 3.31657 286.998 3.11944C286.726 2.76633 286.224 2.46521 285.499 2.20742C284.774 1.9518 283.922 1.82616 282.941 1.82616C280.903 1.82616 279.198 2.45438 277.826 3.70867C276.452 4.96512 275.769 6.8303 275.769 9.30205C275.769 10.2444 275.933 11.256 276.266 12.3349C276.6 13.4137 277.277 14.4838 278.296 15.5431C278.962 15.3872 279.598 15.2789 280.206 15.2204C280.814 15.1619 281.314 15.1316 281.708 15.1316C283.197 15.1316 283.941 15.6233 283.941 16.6046C283.941 16.9967 283.785 17.2913 283.469 17.4863C283.158 17.6834 282.764 17.7809 282.294 17.7809C281.589 17.7809 280.862 17.6055 280.118 17.2524C279.373 16.8971 278.785 16.6046 278.354 16.3685C276.355 17.1917 274.739 18.3507 273.503 19.8432C272.268 21.3337 271.651 23.3548 271.651 25.9067C271.651 28.5366 272.348 30.7354 273.737 32.5009C275.13 34.2664 277.08 35.5922 279.59 36.4739C282.098 37.3578 284.999 37.7997 288.295 37.7997C290.292 37.7997 292.243 37.5744 294.145 37.1238C296.045 36.6732 297.763 35.9951 299.291 35.0918C300.82 34.1885 302.034 33.0988 302.937 31.8229C303.837 30.5491 304.287 29.0673 304.287 27.3776C304.287 26.7126 304.172 25.8677 303.934 24.8474C303.703 23.8271 303.19 22.8067 302.407 21.7842C301.623 20.7639 300.407 19.9407 298.761 19.3125L299.232 18.7818C301.582 19.4901 303.339 20.7748 304.495 22.6378C305.652 24.5051 306.232 26.6324 306.232 29.0262C306.232 31.6171 305.427 34.0022 303.817 36.1815C302.21 38.3586 299.946 40.096 297.027 41.3914C294.104 42.6868 290.666 43.3324 286.706 43.3324C282.708 43.3324 279.138 42.7432 276.002 41.5669C272.865 40.3906 270.405 38.703 268.622 36.5042C266.839 34.3054 265.947 31.6951 265.947 28.6731C265.947 26.5154 266.378 24.6698 267.239 23.1403C268.102 21.6088 269.182 20.3437 270.474 19.3407C271.768 18.3398 273.062 17.5665 274.356 17.0141C275.65 16.466 276.708 16.0934 277.532 15.8963C275.609 15.1121 274.061 14.0917 272.887 12.8353C271.709 11.581 271.121 10.1079 271.121 8.42036C271.121 7.2419 271.404 6.19124 271.973 5.27057C272.54 4.34773 273.337 3.5527 274.356 2.88548C275.375 2.21826 276.552 1.71784 277.883 1.38423C279.215 1.05062 280.667 0.883815 282.236 0.883815" fill="#35B39A"/>
<path d="M344.985 0.11851C347.181 0.11851 348.866 0.35247 350.041 0.824723C351.218 1.29481 352.237 1.80605 353.101 2.35629C353.57 2.63141 353.953 2.83505 354.245 2.97369C354.542 3.11017 354.825 3.17949 355.1 3.17949C355.725 3.17949 356.156 2.3173 356.392 0.588594H357.744C357.705 1.33597 357.658 2.19815 357.597 3.17949C357.541 4.16082 357.5 5.4671 357.48 7.09615C357.461 8.72521 357.452 10.8742 357.452 13.543H356.1C355.981 11.5392 355.539 9.61772 354.775 7.77203C354.012 5.92851 352.934 4.40561 351.541 3.20765C350.149 2.01402 348.373 1.41395 346.218 1.41395C344.299 1.41395 342.7 1.98152 341.425 3.121C340.153 4.26047 339.515 5.78987 339.515 7.71355C339.515 9.3621 339.926 10.7442 340.75 11.8642C341.572 12.982 342.739 14.063 344.249 15.1028C345.757 16.1426 347.553 17.3297 349.628 18.6642C351.549 19.9206 353.276 21.1662 354.806 22.4032C356.333 23.638 357.541 25.0028 358.421 26.4953C359.304 27.9879 359.743 29.8119 359.743 31.9717C359.743 34.5236 359.116 36.6423 357.863 38.3298C356.608 40.0174 354.923 41.2738 352.804 42.0992C350.69 42.9224 348.373 43.3318 345.865 43.3318C343.552 43.3318 341.719 43.0978 340.367 42.6277C339.015 42.1555 337.848 41.6659 336.868 41.1547C336.007 40.6044 335.339 40.3293 334.869 40.3293C334.242 40.3293 333.811 41.1958 333.577 42.9224H332.223C332.301 42.019 332.35 40.9597 332.37 39.7422C332.389 38.5248 332.409 36.9455 332.428 35.0024C332.448 33.0614 332.459 30.5983 332.459 27.6131H333.811C333.967 30.126 334.408 32.4721 335.133 34.6493C335.858 36.8286 336.976 38.5854 338.485 39.9199C339.993 41.2543 342.005 41.9215 344.513 41.9215C346.553 41.9215 348.295 41.341 349.747 40.1842C351.197 39.0274 351.924 37.2705 351.924 34.9136C351.924 32.522 351.099 30.5181 349.453 28.9086C347.808 27.299 345.651 25.67 342.985 24.0236C341.142 22.8451 339.417 21.6472 337.812 20.4297C336.202 19.2144 334.919 17.8301 333.958 16.2791C332.995 14.7302 332.517 12.8563 332.517 10.6575C332.517 8.22262 333.106 6.2318 334.28 4.68073C335.458 3.13183 336.996 1.98153 338.898 1.23632C340.798 0.491114 342.827 0.11851 344.985 0.11851Z" fill="#AFAFAF"/>
<path d="M384.915 1.05996C382.601 1.05996 380.591 1.94381 378.886 3.70934C377.181 5.47704 375.857 7.90979 374.916 11.0098C373.975 14.1119 373.507 17.7036 373.507 21.7849C373.507 25.9464 374.035 29.5663 375.093 32.6489C376.151 35.7294 377.582 38.1058 379.386 39.7717C381.189 41.4419 383.168 42.2737 385.323 42.2737C387.639 42.2737 389.649 41.3921 391.354 39.6244C393.059 37.8588 394.381 35.4153 395.324 32.2936C396.263 29.1742 396.735 25.5933 396.735 21.5488C396.735 17.3505 396.205 13.7198 395.147 10.6567C394.087 7.59568 392.665 5.23225 390.882 3.56203C389.099 1.89399 387.109 1.05996 384.915 1.05996ZM385.148 0.000639755C389.149 0.000639755 392.656 0.845497 395.677 2.53304C398.693 4.22059 401.037 6.64467 402.705 9.80313C404.369 12.9638 405.202 16.8024 405.202 21.3148C405.202 25.7102 404.349 29.5576 402.644 32.8547C400.939 36.1518 398.568 38.7232 395.528 40.5667C392.49 42.4124 389.011 43.3331 385.09 43.3331C381.091 43.3331 377.582 42.4904 374.565 40.8028C371.543 39.1153 369.201 36.6804 367.535 33.5024C365.869 30.3223 365.036 26.4944 365.036 22.021C365.036 17.6235 365.9 13.7783 367.624 10.4812C369.351 7.18408 371.72 4.61269 374.741 2.767C377.757 0.923483 381.228 0.000639755 385.148 0.000639755" fill="#AFAFAF"/>
<path d="M446.663 0.824074V2.00254C445.409 2.11952 444.456 2.40331 443.812 2.85389C443.165 3.30665 442.723 4.01286 442.485 4.97686C442.252 5.93653 442.133 7.3013 442.133 9.06683V25.3769C442.133 28.0068 441.966 30.3615 441.635 32.4412C441.3 34.523 440.666 36.3275 439.722 37.8591C438.742 39.5076 437.284 40.8312 435.343 41.8321C433.402 42.8329 431.037 43.3333 428.256 43.3333C426.374 43.3333 424.522 43.1189 422.698 42.6878C420.874 42.2545 419.277 41.4486 417.905 40.2723C416.689 39.252 415.737 38.0952 415.053 36.7976C414.365 35.5043 413.907 33.9424 413.671 32.1184C413.437 30.2944 413.318 28.1042 413.318 25.5545V7.06518C413.318 5.61376 413.21 4.5436 412.993 3.85689C412.779 3.17017 412.349 2.70009 411.702 2.44446C411.055 2.18884 410.085 2.04153 408.789 2.00254V0.824074C409.769 0.863068 411.024 0.904228 412.552 0.943221C414.082 0.982215 415.728 1.00171 417.494 1.00171C419.102 1.00171 420.688 0.982215 422.259 0.943221C423.823 0.904228 425.119 0.863068 426.138 0.824074V2.00254C424.803 2.04153 423.795 2.18884 423.109 2.44446C422.423 2.70009 421.962 3.17017 421.728 3.85689C421.493 4.5436 421.374 5.61376 421.374 7.06518V28.3794C421.374 31.0093 421.609 33.286 422.081 35.2097C422.551 37.1334 423.395 38.6238 424.611 39.6853C425.824 40.7424 427.59 41.2732 429.903 41.2732C432.764 41.2732 434.979 40.6276 436.548 39.3322C438.115 38.0346 439.214 36.23 439.841 33.9121C440.469 31.5985 440.782 28.9686 440.782 26.0246V9.53909C440.782 7.61541 440.644 6.1445 440.371 5.12201C440.094 4.10168 439.556 3.35647 438.753 2.88639C437.95 2.41414 436.762 2.11952 435.193 2.00254V0.824074C435.94 0.863068 436.909 0.904228 438.106 0.943221C439.302 0.982215 440.408 1.00171 441.427 1.00171C442.407 1.00171 443.379 0.982215 444.34 0.943221C445.3 0.904228 446.075 0.863068 446.663 0.824074Z" fill="#AFAFAF"/>
<path d="M480.476 0.824089V2.00256L459.306 41.1562H467.184C468.714 41.1562 470.116 40.9417 471.391 40.5085C472.665 40.0774 473.812 39.3993 474.833 38.4765C475.85 37.5558 476.692 36.308 477.361 34.7375C478.025 33.1691 478.455 31.2432 478.652 28.9686H480.007C479.89 30.2619 479.829 31.9516 479.829 34.0312C479.829 34.8544 479.86 36.0546 479.918 37.623C479.979 39.1935 480.085 40.8226 480.243 42.5101C478.088 42.4321 475.645 42.3823 472.921 42.3628C470.194 42.3455 467.754 42.3347 465.598 42.3347C463.166 42.3347 460.598 42.3455 457.893 42.3628C455.189 42.3823 452.642 42.4321 450.249 42.5101V41.3338L471.538 2.17802H463.482C461.403 2.17802 459.601 2.54196 458.071 3.26767C456.541 3.99555 455.305 5.20217 454.366 6.88755C453.425 8.57726 452.778 10.9125 452.426 13.8955H451.073C451.151 13.3063 451.201 12.6196 451.22 11.8354C451.24 11.0512 451.248 10.2063 451.248 9.30297C451.248 8.47761 451.22 7.28182 451.162 5.71125C451.101 4.14286 450.993 2.51163 450.837 0.824089C452.917 0.904242 455.219 0.951902 457.748 0.971398C460.276 0.993061 462.541 1.00173 464.54 1.00173C467.089 1.00173 469.774 0.993061 472.596 0.971398C475.42 0.951902 478.046 0.904242 480.476 0.824089Z" fill="#AFAFAF"/>
<path d="M509 25.5534V26.7297H491.474L492.062 25.5534H509ZM503.883 0.647521L518.172 37.5634C518.763 38.9758 519.399 39.9506 520.085 40.4792C520.769 41.01 521.407 41.2959 521.998 41.3327V42.509C520.977 42.431 519.752 42.3834 518.322 42.3639C516.889 42.3444 515.429 42.3336 513.94 42.3336C512.213 42.3336 510.606 42.3444 509.117 42.3639C507.626 42.3834 506.412 42.431 505.471 42.509V41.3327C507.47 41.2547 508.745 40.9125 509.294 40.3037C509.844 39.6928 509.725 38.3887 508.942 36.3871L498.588 8.42019L499.651 7.12475L490.24 31.5584C489.219 34.1493 488.73 36.1423 488.769 37.5352C488.808 38.9281 489.278 39.8986 490.18 40.4489C491.082 40.9991 492.357 41.2959 494.003 41.3327V42.509C492.748 42.431 491.534 42.3834 490.357 42.3639C489.182 42.3444 488.005 42.3336 486.828 42.3336C485.965 42.3336 485.154 42.3444 484.388 42.3639C483.624 42.3834 482.946 42.431 482.358 42.509V41.3327C483.221 41.1356 484.074 40.6265 484.918 39.8012C485.762 38.9758 486.575 37.546 487.358 35.5032L500.826 0.647521C501.295 0.686515 501.804 0.706008 502.355 0.706008C502.903 0.706008 503.411 0.686515 503.883 0.647521" fill="#AFAFAF"/>
<path d="M60.008 55.3019C61.183 55.3019 62.1502 55.4752 62.9075 55.8239C63.6648 56.1706 64.3377 56.5778 64.9262 57.0414C65.2833 57.31 65.5537 57.3404 65.742 57.1346C65.9281 56.9309 66.0579 56.4435 66.1293 55.6766H66.7438C66.7092 56.3374 66.681 57.1411 66.6637 58.0856C66.6464 59.0322 66.6378 60.28 66.6378 61.8333H66.0233C65.8978 61.0642 65.7809 60.4533 65.6749 59.9984C65.5689 59.5435 65.439 59.1557 65.2876 58.8351C65.1361 58.5123 64.9349 58.1917 64.6861 57.8711C64.1343 57.1411 63.4376 56.6103 62.6002 56.2789C61.7628 55.9496 60.88 55.785 59.9539 55.785C59.082 55.785 58.2922 56.0016 57.589 56.4392C56.8858 56.8768 56.2777 57.5072 55.7714 58.326C55.2629 59.147 54.8713 60.137 54.5943 61.2982C54.3196 62.4571 54.1811 63.7569 54.1811 65.204C54.1811 66.7031 54.3304 68.0289 54.6355 69.177C54.9384 70.3295 55.3603 71.2978 55.9056 72.082C56.4487 72.8662 57.0891 73.4598 57.8292 73.8605C58.567 74.2635 59.3654 74.4649 60.2223 74.4649C61.0228 74.4649 61.8602 74.3025 62.7344 73.9818C63.6085 73.6612 64.2923 73.1435 64.7921 72.4286C65.1837 71.913 65.4564 71.3498 65.6078 70.7432C65.7593 70.1388 65.8978 69.2896 66.0233 68.2022H66.6378C66.6378 69.8247 66.6464 71.1332 66.6637 72.1232C66.681 73.1132 66.7092 73.9472 66.7438 74.6252H66.1293C66.0579 73.8562 65.9367 73.3774 65.7679 73.1803C65.5992 72.9832 65.3179 73.0113 64.9262 73.2583C64.2663 73.724 63.5674 74.127 62.8274 74.4779C62.0874 74.8267 61.1397 75 59.9821 75C58.2879 75 56.8057 74.6166 55.5313 73.8497C54.2568 73.0807 53.268 71.9758 52.5626 70.5288C51.8594 69.0838 51.5067 67.3465 51.5067 65.3102C51.5067 63.3128 51.8724 61.5646 52.6037 60.0656C53.335 58.5665 54.3369 57.3988 55.6113 56.5605C56.8858 55.72 58.3506 55.3019 60.008 55.3019Z" fill="#AFAFAF"/>
<path d="M75.8062 61.0034C74.7892 61.0034 73.9562 61.5276 73.3071 62.5826C72.6558 63.6354 72.3312 65.3555 72.3312 67.7471C72.3312 70.1386 72.6558 71.8544 73.3071 72.8985C73.9562 73.9427 74.7892 74.4647 75.8062 74.4647C76.821 74.4647 77.654 73.9427 78.3053 72.8985C78.9566 71.8544 79.2812 70.1386 79.2812 67.7471C79.2812 65.3555 78.9566 63.6354 78.3053 62.5826C77.654 61.5276 76.821 61.0034 75.8062 61.0034ZM75.8062 60.4683C76.9465 60.4683 77.97 60.7174 78.8787 61.2178C79.7897 61.7161 80.5145 62.5003 81.0576 63.5726C81.6007 64.6427 81.8734 66.0335 81.8734 67.7471C81.8734 69.4584 81.6007 70.847 81.0576 71.9085C80.5145 72.9678 79.7897 73.752 78.8787 74.2503C77.97 74.7507 76.9465 74.9998 75.8062 74.9998C74.6832 74.9998 73.6619 74.7507 72.7445 74.2503C71.8271 73.752 71.0957 72.9678 70.5526 71.9085C70.0095 70.847 69.7369 69.4584 69.7369 67.7471C69.7369 66.0335 70.0095 64.6427 70.5526 63.5726C71.0957 62.5003 71.8271 61.7161 72.7445 61.2178C73.6619 60.7174 74.6832 60.4683 75.8062 60.4683" fill="#AFAFAF"/>
<path d="M92.8868 60.4681C93.5641 60.4681 94.1288 60.5569 94.5832 60.7345C95.0397 60.9122 95.4162 61.1613 95.7213 61.4841C96.0589 61.8415 96.299 62.2878 96.4419 62.8228C96.5825 63.3579 96.6561 64.0815 96.6561 64.9913V72.1357C96.6561 72.8831 96.8119 73.3944 97.1234 73.6608C97.435 73.9294 97.9565 74.0616 98.6878 74.0616V74.6248C98.3849 74.6053 97.9197 74.5858 97.2965 74.5577C96.6734 74.5295 96.0675 74.5165 95.479 74.5165C94.8904 74.5165 94.3171 74.5295 93.7545 74.5577C93.1941 74.5858 92.77 74.6053 92.4844 74.6248V74.0616C93.127 74.0616 93.5814 73.9294 93.8497 73.6608C94.1158 73.3944 94.25 72.8831 94.25 72.1357V64.3999C94.25 63.8497 94.2045 63.3406 94.1158 62.8748C94.0271 62.4112 93.8259 62.0386 93.5143 61.7527C93.2027 61.4667 92.7267 61.3238 92.0841 61.3238C90.9611 61.3238 90.0566 61.7917 89.3707 62.7297C88.6848 63.6655 88.343 64.8202 88.343 66.1958V72.1357C88.343 72.8831 88.4749 73.3944 88.7432 73.6608C89.0094 73.9294 89.4638 74.0616 90.1064 74.0616V74.6248C89.8208 74.6053 89.3989 74.5858 88.8363 74.5577C88.2759 74.5295 87.7003 74.5165 87.1139 74.5165C86.5254 74.5165 85.9196 74.5295 85.2942 74.5577C84.6711 74.5858 84.208 74.6053 83.9051 74.6248V74.0616C84.6365 74.0616 85.1558 73.9294 85.4695 73.6608C85.7811 73.3944 85.9369 72.8831 85.9369 72.1357V63.7587C85.9369 62.955 85.7941 62.3636 85.5084 61.978C85.2228 61.5967 84.6884 61.4061 83.9051 61.4061V60.8428C84.4742 60.8948 85.0281 60.923 85.5625 60.923C86.0797 60.923 86.573 60.8905 87.0469 60.8277C87.5186 60.767 87.9492 60.6739 88.343 60.5461V63.7045C88.806 62.4936 89.453 61.6487 90.2795 61.1765C91.1082 60.702 91.978 60.4681 92.8868 60.4681Z" fill="#AFAFAF"/>
<path d="M104.648 60.4681C105.36 60.4681 105.966 60.585 106.465 60.8147C106.963 61.0486 107.329 61.2609 107.562 61.4581C108.151 61.9411 108.506 61.6162 108.631 60.4941H109.246C109.209 60.9923 109.183 61.588 109.166 62.2747C109.148 62.9593 109.14 63.8843 109.14 65.0433H108.525C108.417 64.3847 108.233 63.7413 107.976 63.1174C107.716 62.4935 107.34 61.978 106.84 61.5794C106.34 61.1764 105.691 60.975 104.888 60.975C104.265 60.975 103.743 61.1483 103.326 61.4992C102.906 61.8458 102.696 62.3592 102.696 63.0373C102.696 63.5724 102.856 64.0316 103.179 64.415C103.499 64.7985 103.917 65.1559 104.434 65.4852C104.951 65.8166 105.511 66.1762 106.119 66.5683C107.134 67.2291 107.997 67.8985 108.711 68.5743C109.423 69.2546 109.78 70.1471 109.78 71.254C109.78 72.0729 109.566 72.7618 109.14 73.3142C108.711 73.8666 108.155 74.2869 107.467 74.5728C106.781 74.8566 106.028 74.9996 105.21 74.9996C104.817 74.9996 104.449 74.9671 104.1 74.9064C103.752 74.8436 103.419 74.7504 103.099 74.6248C102.919 74.536 102.737 74.4277 102.549 74.3042C102.363 74.1785 102.179 74.0464 102.002 73.9013C101.822 73.7605 101.664 73.7648 101.521 73.9164C101.378 74.0659 101.27 74.367 101.199 74.8111H100.584C100.621 74.2392 100.647 73.546 100.664 72.7228C100.682 71.9039 100.693 70.8143 100.693 69.4582H101.307C101.43 70.4568 101.61 71.3342 101.841 72.0816C102.073 72.8311 102.439 73.416 102.936 73.8363C103.436 74.2544 104.131 74.4645 105.022 74.4645C105.557 74.4645 106.087 74.276 106.613 73.9013C107.138 73.5265 107.4 72.8679 107.4 71.9213C107.4 71.1371 107.117 70.4937 106.545 69.9933C105.974 69.495 105.254 68.9686 104.38 68.4162C103.739 68.0046 103.138 67.5952 102.575 67.1857C102.015 66.7741 101.56 66.3106 101.214 65.7928C100.866 65.2751 100.693 64.6512 100.693 63.919C100.693 63.1174 100.874 62.461 101.24 61.952C101.606 61.4429 102.09 61.0681 102.696 60.8277C103.302 60.5894 103.953 60.4681 104.648 60.4681Z" fill="#AFAFAF"/>
<path d="M123.948 60.5463V71.733C123.948 72.5367 124.093 73.1325 124.39 73.5137C124.682 73.8972 125.212 74.09 125.978 74.09V74.6532C125.426 74.5969 124.875 74.5731 124.321 74.5731C123.806 74.5731 123.31 74.5969 122.838 74.6532C122.367 74.7052 121.934 74.8027 121.542 74.9435V71.7872C121.097 72.9483 120.469 73.7715 119.658 74.2633C118.846 74.755 118.013 74.9998 117.159 74.9998C116.533 74.9998 115.99 74.911 115.527 74.7312C115.064 74.5536 114.681 74.3044 114.378 73.9817C114.039 73.6242 113.807 73.1606 113.684 72.5909C113.558 72.019 113.495 71.3149 113.495 70.4766V63.7567C113.495 62.9552 113.353 62.3638 113.069 61.9782C112.784 61.5948 112.249 61.4041 111.464 61.4041V60.8431C112.035 60.8951 112.589 60.9232 113.123 60.9232C113.638 60.9232 114.132 60.8907 114.605 60.8279C115.077 60.7672 115.51 60.6741 115.902 60.5463V71.0637C115.902 71.6182 115.936 72.1273 116.01 72.5909C116.079 73.0523 116.259 73.4293 116.544 73.7152C116.828 74.0012 117.291 74.142 117.933 74.142C118.985 74.142 119.848 73.6762 120.525 72.7382C121.203 71.8002 121.542 70.6542 121.542 69.2981V63.7567C121.542 62.9552 121.4 62.3638 121.114 61.9782C120.828 61.5948 120.294 61.4041 119.511 61.4041V60.8431C120.08 60.8951 120.634 60.9232 121.168 60.9232C121.685 60.9232 122.179 60.8907 122.65 60.8279C123.124 60.7672 123.555 60.6741 123.948 60.5463" fill="#AFAFAF"/>
<path d="M131.593 53.6433V72.1349C131.593 72.8844 131.749 73.3935 132.061 73.6599C132.372 73.9286 132.894 74.0629 133.623 74.0629V74.6261C133.32 74.6066 132.861 74.5849 132.247 74.5568C131.632 74.5308 131.014 74.5178 130.39 74.5178C129.785 74.5178 129.168 74.5308 128.545 74.5568C127.922 74.5849 127.459 74.6066 127.156 74.6261V74.0629C127.887 74.0629 128.406 73.9286 128.72 73.6599C129.029 73.3935 129.187 72.8844 129.187 72.1349V56.8538C129.187 56.0501 129.045 55.4587 128.759 55.0731C128.473 54.6897 127.939 54.5012 127.156 54.5012V53.938C127.725 53.99 128.279 54.0181 128.813 54.0181C129.33 54.0181 129.823 53.9856 130.295 53.9228C130.769 53.8621 131.2 53.769 131.593 53.6433" fill="#AFAFAF"/>
<path d="M139.291 56.3978V60.8691H143.249V61.4063H139.291V71.7612C139.291 72.5996 139.443 73.1888 139.746 73.5267C140.048 73.8647 140.466 74.038 141.003 74.038C141.537 74.038 142 73.817 142.392 73.3816C142.783 72.944 143.123 72.2075 143.409 71.172L143.943 71.3063C143.764 72.3396 143.411 73.217 142.887 73.9297C142.359 74.6424 141.554 74.9998 140.466 74.9998C139.862 74.9998 139.363 74.924 138.971 74.7702C138.577 74.6207 138.231 74.4019 137.928 74.1181C137.536 73.7044 137.264 73.217 137.112 72.6451C136.961 72.0731 136.885 71.3149 136.885 70.3683V61.4063H134.319V60.8691H136.885V56.7748C137.331 56.7553 137.759 56.7206 138.168 56.6664C138.577 56.6145 138.951 56.5256 139.291 56.3978Z" fill="#AFAFAF"/>
<path d="M150.999 61.0034C149.982 61.0034 149.149 61.5276 148.5 62.5826C147.849 63.6354 147.524 65.3555 147.524 67.7471C147.524 70.1386 147.849 71.8544 148.5 72.8985C149.149 73.9427 149.982 74.4647 150.999 74.4647C152.014 74.4647 152.847 73.9427 153.499 72.8985C154.15 71.8544 154.474 70.1386 154.474 67.7471C154.474 65.3555 154.15 63.6354 153.499 62.5826C152.847 61.5276 152.014 61.0034 150.999 61.0034ZM150.999 60.4683C152.14 60.4683 153.163 60.7174 154.072 61.2178C154.983 61.7161 155.708 62.5003 156.251 63.5726C156.794 64.6427 157.067 66.0335 157.067 67.7471C157.067 69.4584 156.794 70.847 156.251 71.9085C155.708 72.9678 154.983 73.752 154.072 74.2503C153.163 74.7507 152.14 74.9998 150.999 74.9998C149.876 74.9998 148.855 74.7507 147.938 74.2503C147.02 73.752 146.289 72.9678 145.746 71.9085C145.203 70.847 144.93 69.4584 144.93 67.7471C144.93 66.0335 145.203 64.6427 145.746 63.5726C146.289 62.5003 147.02 61.7161 147.938 61.2178C148.855 60.7174 149.876 60.4683 150.999 60.4683" fill="#AFAFAF"/>
<path d="M167.411 60.4681C167.894 60.4681 168.316 60.5656 168.682 60.7627C169.045 60.9598 169.333 61.2133 169.536 61.5231C169.742 61.8372 169.846 62.1903 169.846 62.5824C169.846 63.0286 169.707 63.4186 169.43 63.7587C169.153 64.0988 168.783 64.2678 168.32 64.2678C167.946 64.2678 167.617 64.1464 167.331 63.906C167.046 63.6655 166.903 63.3211 166.903 62.8748C166.903 62.5369 166.998 62.2466 167.184 62.0061C167.37 61.7657 167.58 61.575 167.814 61.4299C167.688 61.2523 167.5 61.1613 167.251 61.1613C166.503 61.1613 165.851 61.4429 165.3 62.0061C164.748 62.5694 164.315 63.2409 164.004 64.0273C163.692 64.8137 163.536 65.535 163.536 66.1958V71.8693C163.536 72.7423 163.789 73.3272 164.298 73.6197C164.804 73.9164 165.497 74.0616 166.369 74.0616V74.6248C165.96 74.6053 165.38 74.5858 164.631 74.5577C163.885 74.5295 163.09 74.5165 162.253 74.5165C161.647 74.5165 161.046 74.5295 160.449 74.5577C159.851 74.5858 159.401 74.6053 159.098 74.6248V74.0616C159.83 74.0616 160.349 73.9294 160.663 73.6608C160.974 73.3944 161.13 72.8831 161.13 72.1357V63.7587C161.13 62.955 160.987 62.3636 160.702 61.978C160.416 61.5967 159.882 61.4061 159.098 61.4061V60.8428C159.667 60.8948 160.221 60.923 160.756 60.923C161.273 60.923 161.766 60.8905 162.24 60.8277C162.712 60.767 163.142 60.6739 163.536 60.5461V63.893C163.731 63.3774 164.012 62.8532 164.378 62.3268C164.744 61.8003 165.185 61.3584 165.7 61.0031C166.217 60.6457 166.788 60.4681 167.411 60.4681Z" fill="#AFAFAF"/>
<path d="M174.041 54.1512C174.504 54.1512 174.904 54.3201 175.244 54.6581C175.582 55.0003 175.752 55.4011 175.752 55.8625C175.752 56.3283 175.582 56.729 175.244 57.0692C174.904 57.4071 174.504 57.5761 174.041 57.5761C173.578 57.5761 173.178 57.4071 172.838 57.0692C172.5 56.729 172.329 56.3283 172.329 55.8625C172.329 55.4011 172.5 55.0003 172.838 54.6581C173.178 54.3201 173.578 54.1512 174.041 54.1512ZM175.432 60.5461V72.1357C175.432 72.8831 175.586 73.3944 175.897 73.6608C176.209 73.9294 176.733 74.0616 177.462 74.0616V74.6248C177.159 74.6053 176.7 74.5858 176.086 74.5577C175.471 74.5295 174.852 74.5165 174.227 74.5165C173.621 74.5165 173.007 74.5295 172.384 74.5577C171.76 74.5858 171.295 74.6053 170.994 74.6248V74.0616C171.724 74.0616 172.245 73.9294 172.557 73.6608C172.868 73.3944 173.024 72.8831 173.024 72.1357V63.7587C173.024 62.955 172.881 62.3636 172.598 61.978C172.312 61.5967 171.778 61.4061 170.994 61.4061V60.8428C171.563 60.8948 172.115 60.923 172.65 60.923C173.167 60.923 173.662 60.8905 174.134 60.8277C174.606 60.767 175.038 60.6739 175.432 60.5461" fill="#AFAFAF"/>
<path d="M183.584 73.7409C184.118 73.7409 184.644 73.5871 185.161 73.273C185.678 72.9632 186.158 72.439 186.604 71.709V66.4622C186.338 66.8543 185.923 67.1662 185.362 67.398C184.8 67.632 184.22 67.8854 183.625 68.1627C183.027 68.4379 182.515 68.8148 182.088 69.2849C181.66 69.7571 181.446 70.433 181.446 71.306C181.446 72.1271 181.649 72.7379 182.06 73.1409C182.469 73.5395 182.978 73.7409 183.584 73.7409ZM182.409 74.8111C181.249 74.8111 180.407 74.5208 179.881 73.9424C179.356 73.3618 179.094 72.5906 179.094 71.6266C179.094 70.8793 179.275 70.2597 179.641 69.768C180.007 69.2762 180.474 68.8754 181.045 68.5635C181.614 68.2515 182.216 67.9829 182.85 67.7598C183.482 67.5367 184.083 67.3179 184.655 67.1056C185.224 66.8911 185.691 66.6507 186.057 66.382C186.422 66.1134 186.604 65.7755 186.604 65.3639V63.7045C186.604 62.955 186.494 62.3852 186.271 61.9931C186.048 61.601 185.749 61.3367 185.375 61.2046C185.001 61.0681 184.581 61.0031 184.118 61.0031C183.674 61.0031 183.196 61.0638 182.688 61.1894C182.181 61.3151 181.777 61.575 181.472 61.965C181.811 62.0386 182.104 62.2162 182.355 62.5022C182.603 62.786 182.729 63.1521 182.729 63.5983C182.729 64.0446 182.586 64.3977 182.3 64.6555C182.015 64.9155 181.649 65.0433 181.206 65.0433C180.688 65.0433 180.31 64.8786 180.07 64.5493C179.829 64.2179 179.708 63.8496 179.708 63.438C179.708 62.9744 179.823 62.5975 180.057 62.3137C180.288 62.0299 180.58 61.7613 180.937 61.51C181.346 61.2262 181.878 60.9793 182.528 60.7757C183.179 60.5699 183.915 60.468 184.735 60.468C185.464 60.468 186.087 60.5525 186.604 60.7215C187.121 60.8905 187.55 61.1374 187.887 61.458C188.352 61.8848 188.653 62.409 188.796 63.0221C188.939 63.6395 189.01 64.3739 189.01 65.2296V72.6708C189.01 73.0997 189.073 73.416 189.198 73.6196C189.322 73.8254 189.536 73.9294 189.839 73.9294C190.088 73.9294 190.306 73.8753 190.495 73.7691C190.681 73.6608 190.865 73.5265 191.042 73.3662L191.336 73.8211C190.962 74.107 190.605 74.3432 190.267 74.5295C189.93 74.7179 189.473 74.8111 188.902 74.8111C187.976 74.8111 187.361 74.5728 187.058 74.0897C186.756 73.6066 186.604 73.0542 186.604 72.4303C186.035 73.377 185.388 74.0096 184.665 74.328C183.945 74.653 183.192 74.8111 182.409 74.8111Z" fill="#AFAFAF"/>
<path d="M204.968 60.4681C206.537 60.4681 207.762 60.9446 208.645 61.8978C209.525 62.8531 209.969 64.3392 209.969 66.356H200.531L200.505 65.8448H207.403C207.437 64.9718 207.366 64.1659 207.186 63.4229C207.009 62.682 206.728 62.0906 206.345 61.6444C205.962 61.2003 205.466 60.975 204.862 60.975C204.042 60.975 203.315 61.3866 202.684 62.2076C202.05 63.0286 201.671 64.3306 201.548 66.1134L201.628 66.2217C201.591 66.4882 201.565 66.7828 201.548 67.1034C201.528 67.4262 201.519 67.7468 201.519 68.0674C201.519 69.2805 201.716 70.3247 202.108 71.1977C202.5 72.0729 203.012 72.738 203.646 73.1929C204.278 73.6478 204.932 73.8731 205.609 73.8731C206.412 73.8731 207.152 73.6803 207.829 73.286C208.506 72.8939 209.075 72.1986 209.54 71.1977L210.075 71.4144C209.878 72.0014 209.558 72.5733 209.112 73.1257C208.666 73.6803 208.106 74.1287 207.429 74.4775C206.751 74.8263 205.966 74.9996 205.074 74.9996C203.794 74.9996 202.692 74.705 201.775 74.1179C200.857 73.5265 200.152 72.7098 199.663 71.6678C199.172 70.6237 198.927 69.4235 198.927 68.0674C198.927 66.4969 199.176 65.1473 199.676 64.0143C200.176 62.8791 200.879 62.0061 201.788 61.3909C202.697 60.7757 203.757 60.4681 204.968 60.4681Z" fill="#AFAFAF"/>
<path d="M228.866 60.4681C229.489 60.4681 230.034 60.5569 230.497 60.7345C230.96 60.9122 231.343 61.1613 231.646 61.4841C231.984 61.8415 232.215 62.3073 232.341 62.8748C232.466 63.4467 232.527 64.1508 232.527 64.9913V72.1357C232.527 72.8831 232.685 73.3944 232.996 73.6608C233.308 73.9294 233.829 74.0616 234.561 74.0616V74.6248C234.258 74.6053 233.793 74.5858 233.169 74.5577C232.546 74.5295 231.94 74.5165 231.352 74.5165C230.763 74.5165 230.19 74.5295 229.627 74.5577C229.067 74.5858 228.643 74.6053 228.357 74.6248V74.0616C229 74.0616 229.454 73.9294 229.723 73.6608C229.989 73.3944 230.123 72.8831 230.123 72.1357V64.3999C230.123 63.8497 230.086 63.3406 230.015 62.8748C229.945 62.4112 229.766 62.0386 229.48 61.7527C229.195 61.4667 228.732 61.3238 228.091 61.3238C227.057 61.3238 226.198 61.7873 225.512 62.7145C224.824 63.6439 224.482 64.7942 224.482 66.1676L224.402 63.6785C224.882 62.4481 225.534 61.6032 226.354 61.1483C227.174 60.6934 228.011 60.4681 228.866 60.4681ZM220.821 60.4681C221.444 60.4681 221.987 60.5569 222.45 60.7345C222.913 60.9122 223.296 61.1613 223.599 61.4841C223.939 61.8415 224.17 62.3073 224.296 62.8748C224.419 63.4467 224.482 64.1508 224.482 64.9913V72.1357C224.482 72.8831 224.638 73.3944 224.949 73.6608C225.261 73.9294 225.782 74.0616 226.514 74.0616V74.6248C226.211 74.6053 225.748 74.5858 225.125 74.5577C224.499 74.5295 223.893 74.5165 223.305 74.5165C222.719 74.5165 222.143 74.5295 221.583 74.5577C221.02 74.5858 220.598 74.6053 220.312 74.6248V74.0616C220.953 74.0616 221.407 73.9294 221.676 73.6608C221.942 73.3944 222.076 72.8831 222.076 72.1357V64.3999C222.076 63.8497 222.041 63.3406 221.968 62.8748C221.898 62.4112 221.719 62.0386 221.433 61.7527C221.15 61.4667 220.687 61.3238 220.044 61.3238C219.35 61.3238 218.731 61.5382 218.188 61.965C217.642 62.3961 217.216 62.9788 216.905 63.7197C216.593 64.4584 216.435 65.2859 216.435 66.1958V72.1357C216.435 72.8831 216.569 73.3944 216.837 73.6608C217.104 73.9294 217.558 74.0616 218.201 74.0616V74.6248C217.915 74.6053 217.491 74.5858 216.931 74.5577C216.37 74.5295 215.795 74.5165 215.206 74.5165C214.62 74.5165 214.012 74.5295 213.388 74.5577C212.765 74.5858 212.302 74.6053 211.999 74.6248V74.0616C212.729 74.0616 213.25 73.9294 213.562 73.6608C213.873 73.3944 214.031 72.8831 214.031 72.1357V63.7587C214.031 62.955 213.888 62.3636 213.603 61.978C213.317 61.5967 212.783 61.4061 211.999 61.4061V60.8428C212.568 60.8948 213.122 60.923 213.657 60.923C214.172 60.923 214.667 60.8905 215.139 60.8277C215.613 60.767 216.043 60.6739 216.435 60.5461V63.7045C216.9 62.5455 217.532 61.7159 218.335 61.2176C219.135 60.7172 219.964 60.4681 220.821 60.4681Z" fill="#AFAFAF"/>
<path d="M246.989 65.1772C247.95 65.214 248.709 65.253 249.261 65.2985C249.813 65.3418 250.263 65.383 250.611 65.4176C250.958 65.4544 251.293 65.4978 251.613 65.5519C252.808 65.7491 253.667 66.1108 254.195 66.6351C254.718 67.1615 255.105 67.9782 255.356 69.0852L256.025 71.8125C256.203 72.6011 256.384 73.1665 256.573 73.5152C256.761 73.8618 257.049 74.0265 257.44 74.0091C257.743 73.9897 257.998 73.8922 258.204 73.7145C258.407 73.5347 258.626 73.2964 258.857 72.991L259.258 73.2856C258.886 73.8402 258.496 74.2626 258.096 74.5572C257.695 74.8518 257.129 74.9991 256.399 74.9991C255.737 74.9991 255.16 74.802 254.66 74.4099C254.162 74.0178 253.788 73.2509 253.539 72.1093L252.95 69.4339C252.79 68.6649 252.606 68.002 252.401 67.4388C252.197 66.8755 251.912 66.4336 251.546 66.1152C251.18 65.7924 250.642 65.6321 249.93 65.6321H247.043L246.989 65.1772ZM242.74 55.6758C243.112 55.6931 243.603 55.7126 244.209 55.7299C244.815 55.7473 245.412 55.7559 246 55.7559C246.838 55.7559 247.638 55.7473 248.407 55.7299C249.173 55.7126 249.716 55.7039 250.036 55.7039C252.193 55.7039 253.805 56.1502 254.876 57.0405C255.945 57.9331 256.479 59.04 256.479 60.3593C256.479 60.8944 256.371 61.4663 256.157 62.0729C255.945 62.6794 255.573 63.2492 255.049 63.7842C254.523 64.3193 253.805 64.7634 252.896 65.11C251.988 65.4588 250.839 65.6321 249.449 65.6321H246.881V65.097H249.181C250.447 65.097 251.412 64.8955 252.083 64.4948C252.749 64.094 253.204 63.5589 253.444 62.8874C253.686 62.2202 253.805 61.475 253.805 60.6539C253.805 59.2458 253.472 58.1519 252.803 57.3763C252.135 56.5986 250.99 56.2109 249.369 56.2109C248.549 56.2109 248.015 56.3647 247.764 56.6658C247.515 56.9712 247.39 57.5865 247.39 58.5136V71.7887C247.39 72.4299 247.444 72.9108 247.55 73.2336C247.658 73.5542 247.866 73.7687 248.179 73.8748C248.489 73.981 248.95 74.0546 249.555 74.0893V74.6244C249.147 74.5897 248.634 74.5681 248.019 74.5572C247.403 74.5486 246.784 74.5442 246.161 74.5442C245.466 74.5442 244.815 74.5486 244.209 74.5572C243.603 74.5681 243.112 74.5897 242.74 74.6244V74.0893C243.343 74.0546 243.804 73.981 244.116 73.8748C244.427 73.7687 244.637 73.5542 244.743 73.2336C244.852 72.9108 244.906 72.4299 244.906 71.7887V58.5136C244.906 57.8529 244.852 57.3677 244.743 57.0557C244.637 56.7416 244.427 56.5293 244.116 56.4123C243.804 56.2953 243.343 56.2282 242.74 56.2109V55.6758Z" fill="#AFAFAF"/>
<path d="M266.208 60.4681C267.777 60.4681 269.002 60.9446 269.882 61.8978C270.765 62.8531 271.209 64.3392 271.209 66.356H261.77L261.745 65.8448H268.64C268.677 64.9718 268.604 64.1659 268.426 63.4229C268.249 62.682 267.967 62.0906 267.587 61.6444C267.201 61.2003 266.706 60.975 266.102 60.975C265.28 60.975 264.555 61.3866 263.921 62.2076C263.289 63.0286 262.913 64.3306 262.787 66.1134L262.868 66.2217C262.831 66.4882 262.805 66.7828 262.787 67.1034C262.768 67.4262 262.759 67.7468 262.759 68.0674C262.759 69.2805 262.956 70.3247 263.348 71.1977C263.739 72.0729 264.252 72.738 264.886 73.1929C265.518 73.6478 266.172 73.8731 266.851 73.8731C267.652 73.8731 268.392 73.6803 269.069 73.286C269.746 72.8939 270.315 72.1986 270.778 71.1977L271.313 71.4144C271.12 72.0014 270.798 72.5733 270.352 73.1257C269.906 73.6803 269.344 74.1287 268.669 74.4775C267.989 74.8263 267.206 74.9996 266.317 74.9996C265.033 74.9996 263.932 74.705 263.012 74.1179C262.097 73.5265 261.392 72.7098 260.903 71.6678C260.412 70.6237 260.167 69.4235 260.167 68.0674C260.167 66.4969 260.416 65.1473 260.916 64.0143C261.413 62.8791 262.119 62.0061 263.028 61.3909C263.936 60.7757 264.994 60.4681 266.208 60.4681Z" fill="#AFAFAF"/>
<path d="M279.922 60.4681C280.493 60.4681 281.045 60.5374 281.579 60.6825C282.114 60.8233 282.594 61.04 283.023 61.3237C283.432 61.5924 283.745 61.8978 283.957 62.2466C284.172 62.5932 284.28 62.9745 284.28 63.3839C284.28 63.8648 284.143 64.2352 283.877 64.493C283.609 64.7552 283.271 64.883 282.86 64.883C282.471 64.883 282.127 64.766 281.833 64.5364C281.538 64.3046 281.393 63.9731 281.393 63.5464C281.393 63.1326 281.501 62.8055 281.726 62.5542C281.949 62.3072 282.211 62.1426 282.514 62.0733C282.337 61.7527 282.021 61.484 281.566 61.2696C281.112 61.0551 280.625 60.949 280.108 60.949C279.662 60.949 279.217 61.0551 278.773 61.2696C278.327 61.484 277.916 61.8372 277.542 62.3267C277.17 62.8185 276.865 63.4879 276.633 64.3349C276.402 65.1819 276.285 66.2391 276.285 67.5042C276.285 69.0769 276.462 70.3247 276.819 71.254C277.176 72.1791 277.644 72.8463 278.226 73.2449C278.801 73.6478 279.439 73.8493 280.136 73.8493C280.831 73.8493 281.534 73.6435 282.246 73.234C282.96 72.8224 283.548 72.1097 284.011 71.0916L284.52 71.2779C284.34 71.8498 284.046 72.4282 283.637 73.0044C283.226 73.5871 282.692 74.0616 282.034 74.4363C281.374 74.8111 280.562 74.9996 279.602 74.9996C278.496 74.9996 277.499 74.7136 276.607 74.1417C275.716 73.572 275.008 72.7553 274.48 71.696C273.954 70.6323 273.693 69.3694 273.693 67.9071C273.693 66.4449 273.954 65.1559 274.48 64.0381C275.008 62.9268 275.742 62.0495 276.687 61.4147C277.631 60.7843 278.708 60.4681 279.922 60.4681Z" fill="#AFAFAF"/>
<path d="M298.365 60.5463V71.733C298.365 72.5367 298.512 73.1325 298.806 73.5137C299.1 73.8972 299.63 74.09 300.396 74.09V74.6532C299.845 74.5969 299.293 74.5731 298.739 74.5731C298.224 74.5731 297.728 74.5969 297.255 74.6532C296.785 74.7052 296.35 74.8027 295.961 74.9435V71.7872C295.515 72.9483 294.885 73.7715 294.076 74.2633C293.265 74.755 292.432 74.9998 291.575 74.9998C290.952 74.9998 290.406 74.911 289.946 74.7312C289.482 74.5536 289.099 74.3044 288.794 73.9817C288.457 73.6242 288.225 73.1606 288.1 72.5909C287.976 72.019 287.914 71.3149 287.914 70.4766V63.7567C287.914 62.9552 287.771 62.3638 287.487 61.9782C287.2 61.5948 286.665 61.4041 285.882 61.4041V60.8431C286.453 60.8951 287.005 60.9232 287.539 60.9232C288.057 60.9232 288.55 60.8907 289.024 60.8279C289.495 60.7672 289.928 60.6741 290.318 60.5463V71.0637C290.318 71.6182 290.354 72.1273 290.426 72.5909C290.497 73.0523 290.675 73.4293 290.96 73.7152C291.246 74.0012 291.709 74.142 292.352 74.142C293.403 74.142 294.264 73.6762 294.944 72.7382C295.619 71.8002 295.961 70.6542 295.961 69.2981V63.7567C295.961 62.9552 295.816 62.3638 295.53 61.9782C295.247 61.5948 294.712 61.4041 293.927 61.4041V60.8431C294.498 60.8951 295.052 60.9232 295.586 60.9232C296.101 60.9232 296.597 60.8907 297.069 60.8279C297.54 60.7672 297.973 60.6741 298.365 60.5463Z" fill="#AFAFAF"/>
<path d="M310.073 60.4681C310.555 60.4681 310.977 60.5656 311.343 60.7627C311.709 60.9598 311.994 61.2133 312.198 61.5231C312.403 61.8372 312.505 62.1903 312.505 62.5824C312.505 63.0286 312.369 63.4186 312.092 63.7587C311.815 64.0988 311.445 64.2678 310.982 64.2678C310.607 64.2678 310.278 64.1464 309.993 63.906C309.707 63.6655 309.567 63.3211 309.567 62.8748C309.567 62.5369 309.66 62.2466 309.846 62.0061C310.032 61.7657 310.242 61.575 310.475 61.4299C310.35 61.2523 310.162 61.1613 309.913 61.1613C309.164 61.1613 308.513 61.4429 307.961 62.0061C307.409 62.5694 306.974 63.2409 306.665 64.0273C306.351 64.8137 306.198 65.535 306.198 66.1958V71.8693C306.198 72.7423 306.451 73.3272 306.959 73.6197C307.468 73.9164 308.156 74.0616 309.032 74.0616V74.6248C308.621 74.6053 308.041 74.5858 307.295 74.5577C306.544 74.5295 305.752 74.5165 304.912 74.5165C304.309 74.5165 303.707 74.5295 303.108 74.5577C302.513 74.5858 302.063 74.6053 301.76 74.6248V74.0616C302.489 74.0616 303.01 73.9294 303.324 73.6608C303.634 73.3944 303.792 72.8831 303.792 72.1357V63.7587C303.792 62.955 303.647 62.3636 303.363 61.978C303.08 61.5967 302.545 61.4061 301.76 61.4061V60.8428C302.329 60.8948 302.883 60.923 303.417 60.923C303.932 60.923 304.43 60.8905 304.899 60.8277C305.371 60.767 305.804 60.6739 306.198 60.5461V63.893C306.394 63.3774 306.674 62.8532 307.039 62.3268C307.405 61.8003 307.844 61.3584 308.364 61.0031C308.878 60.6457 309.45 60.4681 310.073 60.4681Z" fill="#AFAFAF"/>
<path d="M318.44 60.4681C319.152 60.4681 319.758 60.585 320.258 60.8147C320.756 61.0486 321.121 61.2609 321.353 61.4581C321.941 61.9411 322.298 61.6162 322.424 60.4941H323.038C323.002 60.9923 322.976 61.588 322.958 62.2747C322.939 62.9593 322.93 63.8843 322.93 65.0433H322.316C322.208 64.3847 322.026 63.7413 321.768 63.1174C321.509 62.4935 321.13 61.978 320.632 61.5794C320.133 61.1764 319.481 60.975 318.678 60.975C318.055 60.975 317.534 61.1483 317.118 61.4992C316.697 61.8458 316.489 62.3592 316.489 63.0373C316.489 63.5724 316.649 64.0316 316.969 64.415C317.292 64.7985 317.709 65.1559 318.224 65.4852C318.743 65.8166 319.302 66.1762 319.912 66.5683C320.924 67.2291 321.79 67.8985 322.504 68.5743C323.216 69.2546 323.573 70.1471 323.573 71.254C323.573 72.0729 323.357 72.7618 322.93 73.3142C322.504 73.8666 321.946 74.2869 321.262 74.5728C320.572 74.8566 319.821 74.9996 319.001 74.9996C318.609 74.9996 318.239 74.9671 317.891 74.9064C317.545 74.8436 317.211 74.7504 316.889 74.6248C316.709 74.536 316.528 74.4277 316.342 74.3042C316.153 74.1785 315.972 74.0464 315.792 73.9013C315.615 73.7605 315.455 73.7648 315.314 73.9164C315.169 74.0659 315.061 74.367 314.991 74.8111H314.377C314.414 74.2392 314.438 73.546 314.457 72.7228C314.474 71.9039 314.483 70.8143 314.483 69.4582H315.098C315.223 70.4568 315.403 71.3342 315.632 72.0816C315.866 72.8311 316.231 73.416 316.729 73.8363C317.227 74.2544 317.923 74.4645 318.815 74.4645C319.349 74.4645 319.879 74.276 320.403 73.9013C320.929 73.5265 321.193 72.8679 321.193 71.9213C321.193 71.1371 320.907 70.4937 320.338 69.9933C319.767 69.495 319.044 68.9686 318.172 68.4162C317.53 68.0046 316.93 67.5952 316.368 67.1857C315.805 66.7741 315.353 66.3106 315.004 65.7928C314.656 65.2751 314.483 64.6512 314.483 63.919C314.483 63.1174 314.667 62.461 315.033 61.952C315.396 61.4429 315.883 61.0681 316.489 60.8277C317.095 60.5894 317.746 60.4681 318.44 60.4681Z" fill="#AFAFAF"/>
<path d="M332.152 61.0034C331.137 61.0034 330.304 61.5276 329.655 62.5826C329.004 63.6354 328.679 65.3555 328.679 67.7471C328.679 70.1386 329.004 71.8544 329.655 72.8985C330.304 73.9427 331.137 74.4647 332.152 74.4647C333.169 74.4647 334 73.9427 334.651 72.8985C335.302 71.8544 335.627 70.1386 335.627 67.7471C335.627 65.3555 335.302 63.6354 334.651 62.5826C334 61.5276 333.169 61.0034 332.152 61.0034ZM332.152 60.4683C333.292 60.4683 334.318 60.7174 335.227 61.2178C336.135 61.7161 336.862 62.5003 337.406 63.5726C337.949 64.6427 338.221 66.0335 338.221 67.7471C338.221 69.4584 337.949 70.847 337.406 71.9085C336.862 72.9678 336.135 73.752 335.227 74.2503C334.318 74.7507 333.292 74.9998 332.152 74.9998C331.029 74.9998 330.01 74.7507 329.092 74.2503C328.173 73.752 327.441 72.9678 326.898 71.9085C326.355 70.847 326.085 69.4584 326.085 67.7471C326.085 66.0335 326.355 64.6427 326.898 63.5726C327.441 62.5003 328.173 61.7161 329.092 61.2178C330.01 60.7174 331.029 60.4683 332.152 60.4683Z" fill="#AFAFAF"/>
<path d="M345.037 60.4681C345.749 60.4681 346.355 60.585 346.855 60.8147C347.352 61.0486 347.718 61.2609 347.952 61.4581C348.538 61.9411 348.895 61.6162 349.021 60.4941H349.635C349.598 60.9923 349.572 61.588 349.555 62.2747C349.536 62.9593 349.529 63.8843 349.529 65.0433H348.913C348.807 64.3847 348.623 63.7413 348.365 63.1174C348.105 62.4935 347.729 61.978 347.229 61.5794C346.729 61.1764 346.078 60.975 345.277 60.975C344.654 60.975 344.133 61.1483 343.715 61.4992C343.293 61.8458 343.088 62.3592 343.088 63.0373C343.088 63.5724 343.248 64.0316 343.566 64.415C343.888 64.7985 344.306 65.1559 344.823 65.4852C345.34 65.8166 345.901 66.1762 346.509 66.5683C347.523 67.2291 348.387 67.8985 349.101 68.5743C349.813 69.2546 350.17 70.1471 350.17 71.254C350.17 72.0729 349.955 72.7618 349.529 73.3142C349.101 73.8666 348.543 74.2869 347.859 74.5728C347.171 74.8566 346.418 74.9996 345.598 74.9996C345.206 74.9996 344.836 74.9671 344.49 74.9064C344.141 74.8436 343.808 74.7504 343.486 74.6248C343.308 74.536 343.125 74.4277 342.938 74.3042C342.75 74.1785 342.568 74.0464 342.389 73.9013C342.211 73.7605 342.051 73.7648 341.911 73.9164C341.766 74.0659 341.66 74.367 341.588 74.8111H340.974C341.011 74.2392 341.034 73.546 341.054 72.7228C341.071 71.9039 341.082 70.8143 341.082 69.4582H341.696C341.822 70.4568 341.999 71.3342 342.231 72.0816C342.462 72.8311 342.828 73.416 343.326 73.8363C343.823 74.2544 344.522 74.4645 345.412 74.4645C345.946 74.4645 346.476 74.276 347.002 73.9013C347.528 73.5265 347.79 72.8679 347.79 71.9213C347.79 71.1371 347.506 70.4937 346.935 69.9933C346.364 69.495 345.643 68.9686 344.771 68.4162C344.128 68.0046 343.527 67.5952 342.967 67.1857C342.404 66.7741 341.95 66.3106 341.601 65.7928C341.255 65.2751 341.082 64.6512 341.082 63.919C341.082 63.1174 341.264 62.461 341.629 61.952C341.995 61.4429 342.48 61.0681 343.088 60.8277C343.691 60.5894 344.343 60.4681 345.037 60.4681Z" fill="#AFAFAF"/>
<path d="M370.379 74.6252V74.0902C370.983 74.0533 371.443 73.9819 371.755 73.8735C372.067 73.7674 372.276 73.5551 372.383 73.2323C372.491 72.9117 372.543 72.4286 372.543 71.7874V58.5145C372.543 57.8538 372.491 57.3664 372.383 57.0566C372.276 56.7425 372.067 56.528 371.755 56.4132C371.443 56.2962 370.983 56.2291 370.379 56.2117V55.6766C370.786 55.694 371.305 55.7135 371.928 55.7286C372.551 55.7481 373.166 55.7568 373.772 55.7568C374.468 55.7568 375.117 55.7481 375.725 55.7286C376.329 55.7135 376.82 55.694 377.193 55.6766V56.2117C376.589 56.2291 376.128 56.2962 375.819 56.4132C375.505 56.528 375.295 56.7425 375.191 57.0566C375.083 57.3664 375.029 57.8538 375.029 58.5145V71.7874C375.029 72.4286 375.083 72.9117 375.191 73.2323C375.295 73.5551 375.505 73.7674 375.819 73.8735C376.128 73.9819 376.589 74.0533 377.193 74.0902V74.6252C376.82 74.5884 376.329 74.5689 375.725 74.5581C375.117 74.5494 374.468 74.5451 373.772 74.5451C373.166 74.5451 372.551 74.5494 371.928 74.5581C371.305 74.5689 370.786 74.5884 370.379 74.6252ZM362.92 64.8293H373.48V65.3643H362.92V64.8293ZM359.203 74.6252V74.0902C359.809 74.0533 360.268 73.9819 360.581 73.8735C360.893 73.7674 361.103 73.5551 361.209 73.2323C361.317 72.9117 361.369 72.4286 361.369 71.7874V58.5145C361.369 57.8538 361.317 57.3664 361.209 57.0566C361.103 56.7425 360.893 56.528 360.581 56.4132C360.268 56.2962 359.809 56.2291 359.203 56.2117V55.6766C359.58 55.694 360.069 55.7135 360.674 55.7286C361.28 55.7481 361.932 55.7568 362.626 55.7568C363.249 55.7568 363.868 55.7481 364.483 55.7286C365.099 55.7135 365.61 55.694 366.019 55.6766V56.2117C365.415 56.2291 364.954 56.2962 364.645 56.4132C364.331 56.528 364.121 56.7425 364.017 57.0566C363.909 57.3664 363.855 57.8538 363.855 58.5145V71.7874C363.855 72.4286 363.909 72.9117 364.017 73.2323C364.121 73.5551 364.331 73.7674 364.645 73.8735C364.954 73.9819 365.415 74.0533 366.019 74.0902V74.6252C365.61 74.5884 365.099 74.5689 364.483 74.5581C363.868 74.5494 363.249 74.5451 362.626 74.5451C361.932 74.5451 361.28 74.5494 360.674 74.5581C360.069 74.5689 359.58 74.5884 359.203 74.6252Z" fill="#AFAFAF"/>
<path d="M390.934 60.5463V71.733C390.934 72.5367 391.082 73.1325 391.376 73.5137C391.67 73.8972 392.2 74.09 392.964 74.09V74.6532C392.414 74.5969 391.861 74.5731 391.309 74.5731C390.792 74.5731 390.296 74.5969 389.824 74.6532C389.353 74.7052 388.92 74.8027 388.531 74.9435V71.7872C388.085 72.9483 387.455 73.7715 386.646 74.2633C385.834 74.755 385.001 74.9998 384.145 74.9998C383.521 74.9998 382.976 74.911 382.513 74.7312C382.052 74.5536 381.667 74.3044 381.364 73.9817C381.027 73.6242 380.793 73.1606 380.67 72.5909C380.544 72.019 380.484 71.3149 380.484 70.4766V63.7567C380.484 62.9552 380.341 62.3638 380.055 61.9782C379.77 61.5948 379.235 61.4041 378.45 61.4041V60.8431C379.021 60.8951 379.575 60.9232 380.109 60.9232C380.624 60.9232 381.12 60.8907 381.594 60.8279C382.063 60.7672 382.498 60.6741 382.887 60.5463V71.0637C382.887 71.6182 382.924 72.1273 382.996 72.5909C383.067 73.0523 383.244 73.4293 383.53 73.7152C383.814 74.0012 384.279 74.142 384.921 74.142C385.971 74.142 386.834 73.6762 387.514 72.7382C388.189 71.8002 388.531 70.6542 388.531 69.2981V63.7567C388.531 62.9552 388.386 62.3638 388.1 61.9782C387.816 61.5948 387.282 61.4041 386.497 61.4041V60.8431C387.068 60.8951 387.62 60.9232 388.154 60.9232C388.671 60.9232 389.167 60.8907 389.636 60.8279C390.11 60.7672 390.541 60.6741 390.934 60.5463" fill="#AFAFAF"/>
<path d="M411.196 60.4681C411.819 60.4681 412.362 60.5569 412.828 60.7345C413.291 60.9122 413.674 61.1613 413.974 61.4841C414.312 61.8415 414.546 62.3073 414.669 62.8748C414.795 63.4467 414.857 64.1508 414.857 64.9913V72.1357C414.857 72.8831 415.015 73.3944 415.325 73.6608C415.638 73.9294 416.16 74.0616 416.891 74.0616V74.6248C416.586 74.6053 416.123 74.5858 415.5 74.5577C414.875 74.5295 414.271 74.5165 413.68 74.5165C413.094 74.5165 412.518 74.5295 411.96 74.5577C411.397 74.5858 410.971 74.6053 410.69 74.6248V74.0616C411.33 74.0616 411.783 73.9294 412.053 73.6608C412.319 73.3944 412.451 72.8831 412.451 72.1357V64.3999C412.451 63.8497 412.417 63.3406 412.345 62.8748C412.274 62.4112 412.096 62.0386 411.811 61.7527C411.525 61.4667 411.062 61.3238 410.422 61.3238C409.387 61.3238 408.528 61.7873 407.84 62.7145C407.154 63.6439 406.812 64.7942 406.812 66.1676L406.732 63.6785C407.213 62.4481 407.862 61.6032 408.684 61.1483C409.502 60.6934 410.339 60.4681 411.196 60.4681ZM403.149 60.4681C403.772 60.4681 404.315 60.5569 404.781 60.7345C405.244 60.9122 405.627 61.1613 405.93 61.4841C406.269 61.8415 406.501 62.3073 406.624 62.8748C406.75 63.4467 406.812 64.1508 406.812 64.9913V72.1357C406.812 72.8831 406.968 73.3944 407.28 73.6608C407.591 73.9294 408.113 74.0616 408.844 74.0616V74.6248C408.539 74.6053 408.078 74.5858 407.455 74.5577C406.828 74.5295 406.224 74.5165 405.635 74.5165C405.047 74.5165 404.473 74.5295 403.913 74.5577C403.35 74.5858 402.929 74.6053 402.643 74.6248V74.0616C403.283 74.0616 403.74 73.9294 404.006 73.6608C404.274 73.3944 404.406 72.8831 404.406 72.1357V64.3999C404.406 63.8497 404.372 63.3406 404.298 62.8748C404.227 62.4112 404.049 62.0386 403.764 61.7527C403.48 61.4667 403.017 61.3238 402.375 61.3238C401.68 61.3238 401.059 61.5382 400.516 61.965C399.973 62.3961 399.544 62.9788 399.235 63.7197C398.921 64.4584 398.765 65.2859 398.765 66.1958V72.1357C398.765 72.8831 398.9 73.3944 399.166 73.6608C399.434 73.9294 399.888 74.0616 400.529 74.0616V74.6248C400.243 74.6053 399.821 74.5858 399.261 74.5577C398.701 74.5295 398.125 74.5165 397.536 74.5165C396.948 74.5165 396.342 74.5295 395.719 74.5577C395.096 74.5858 394.631 74.6053 394.328 74.6248V74.0616C395.059 74.0616 395.58 73.9294 395.892 73.6608C396.204 73.3944 396.362 72.8831 396.362 72.1357V63.7587C396.362 62.955 396.217 62.3636 395.931 61.978C395.645 61.5967 395.111 61.4061 394.328 61.4061V60.8428C394.899 60.8948 395.453 60.923 395.987 60.923C396.502 60.923 396.998 60.8905 397.469 60.8277C397.941 60.767 398.374 60.6739 398.765 60.5461V63.7045C399.231 62.5455 399.862 61.7159 400.665 61.2176C401.466 60.7172 402.295 60.4681 403.149 60.4681Z" fill="#AFAFAF"/>
<path d="M422.822 73.7409C423.357 73.7409 423.883 73.5871 424.4 73.273C424.917 72.9632 425.397 72.439 425.843 71.709V66.4622C425.575 66.8543 425.161 67.1662 424.601 67.398C424.038 67.632 423.461 67.8854 422.866 68.1627C422.266 68.4379 421.753 68.8148 421.327 69.2849C420.899 69.7571 420.684 70.433 420.684 71.306C420.684 72.1271 420.888 72.7379 421.299 73.1409C421.708 73.5395 422.219 73.7409 422.822 73.7409ZM421.647 74.8111C420.488 74.8111 419.646 74.5208 419.122 73.9424C418.596 73.3618 418.332 72.5906 418.332 71.6266C418.332 70.8793 418.514 70.2597 418.88 69.768C419.246 69.2762 419.713 68.8754 420.284 68.5635C420.853 68.2515 421.455 67.9829 422.087 67.7598C422.721 67.5367 423.322 67.3179 423.891 67.1056C424.462 66.8911 424.932 66.6507 425.298 66.382C425.661 66.1134 425.843 65.7755 425.843 65.3639V63.7045C425.843 62.955 425.733 62.3852 425.51 61.9931C425.287 61.601 424.988 61.3367 424.614 61.2046C424.24 61.0681 423.822 61.0031 423.357 61.0031C422.911 61.0031 422.435 61.0638 421.929 61.1894C421.42 61.3151 421.013 61.575 420.71 61.965C421.05 62.0386 421.342 62.2162 421.595 62.5022C421.842 62.786 421.968 63.1521 421.968 63.5983C421.968 64.0446 421.825 64.3977 421.539 64.6555C421.254 64.9155 420.888 65.0433 420.444 65.0433C419.927 65.0433 419.549 64.8786 419.308 64.5493C419.068 64.2179 418.947 63.8496 418.947 63.438C418.947 62.9744 419.064 62.5975 419.295 62.3137C419.527 62.0299 419.819 61.7613 420.176 61.51C420.587 61.2262 421.117 60.9793 421.769 60.7757C422.418 60.5699 423.153 60.468 423.971 60.468C424.703 60.468 425.326 60.5525 425.843 60.7215C426.362 60.8905 426.788 61.1374 427.126 61.458C427.589 61.8848 427.894 62.409 428.035 63.0221C428.18 63.6395 428.251 64.3739 428.251 65.2296V72.6708C428.251 73.0997 428.312 73.416 428.437 73.6196C428.561 73.8254 428.775 73.9294 429.08 73.9294C429.329 73.9294 429.545 73.8753 429.733 73.7691C429.919 73.6608 430.103 73.5265 430.281 73.3662L430.575 73.8211C430.201 74.107 429.844 74.3432 429.506 74.5295C429.169 74.7179 428.714 74.8111 428.143 74.8111C427.215 74.8111 426.6 74.5728 426.297 74.0897C425.996 73.6066 425.843 73.0542 425.843 72.4303C425.274 73.377 424.627 74.0096 423.906 74.328C423.184 74.653 422.431 74.8111 421.647 74.8111Z" fill="#AFAFAF"/>
<path d="M440.358 60.4681C441.033 60.4681 441.6 60.5569 442.055 60.7345C442.509 60.9122 442.888 61.1613 443.193 61.4841C443.53 61.8415 443.771 62.2878 443.916 62.8228C444.056 63.3579 444.128 64.0815 444.128 64.9913V72.1357C444.128 72.8831 444.281 73.3944 444.595 73.6608C444.907 73.9294 445.428 74.0616 446.159 74.0616V74.6248C445.856 74.6053 445.391 74.5858 444.768 74.5577C444.145 74.5295 443.539 74.5165 442.951 74.5165C442.364 74.5165 441.789 74.5295 441.226 74.5577C440.666 74.5858 440.242 74.6053 439.956 74.6248V74.0616C440.599 74.0616 441.053 73.9294 441.321 73.6608C441.587 73.3944 441.722 72.8831 441.722 72.1357V64.3999C441.722 63.8497 441.676 63.3406 441.587 62.8748C441.499 62.4112 441.3 62.0386 440.986 61.7527C440.674 61.4667 440.198 61.3238 439.556 61.3238C438.433 61.3238 437.528 61.7917 436.844 62.7297C436.156 63.6655 435.812 64.8202 435.812 66.1958V72.1357C435.812 72.8831 435.949 73.3944 436.215 73.6608C436.483 73.9294 436.937 74.0616 437.578 74.0616V74.6248C437.292 74.6053 436.87 74.5858 436.31 74.5577C435.747 74.5295 435.174 74.5165 434.583 74.5165C433.997 74.5165 433.389 74.5295 432.766 74.5577C432.143 74.5858 431.677 74.6053 431.377 74.6248V74.0616C432.108 74.0616 432.629 73.9294 432.939 73.6608C433.253 73.3944 433.408 72.8831 433.408 72.1357V63.7587C433.408 62.955 433.266 62.3636 432.98 61.978C432.694 61.5967 432.16 61.4061 431.377 61.4061V60.8428C431.946 60.8948 432.5 60.923 433.034 60.923C433.551 60.923 434.045 60.8905 434.518 60.8277C434.99 60.767 435.421 60.6739 435.812 60.5461V63.7045C436.278 62.4936 436.922 61.6487 437.751 61.1765C438.582 60.702 439.45 60.4681 440.358 60.4681Z" fill="#AFAFAF"/>
<path d="M453.884 61.0034C452.867 61.0034 452.036 61.5276 451.385 62.5826C450.733 63.6354 450.409 65.3555 450.409 67.7471C450.409 70.1386 450.733 71.8544 451.385 72.8985C452.036 73.9427 452.867 74.4647 453.884 74.4647C454.901 74.4647 455.732 73.9427 456.383 72.8985C457.034 71.8544 457.357 70.1386 457.357 67.7471C457.357 65.3555 457.034 63.6354 456.383 62.5826C455.732 61.5276 454.901 61.0034 453.884 61.0034ZM453.884 60.4683C455.022 60.4683 456.05 60.7174 456.959 61.2178C457.867 61.7161 458.592 62.5003 459.137 63.5726C459.681 64.6427 459.953 66.0335 459.953 67.7471C459.953 69.4584 459.681 70.847 459.137 71.9085C458.592 72.9678 457.867 73.752 456.959 74.2503C456.05 74.7507 455.022 74.9998 453.884 74.9998C452.761 74.9998 451.742 74.7507 450.822 74.2503C449.905 73.752 449.173 72.9678 448.63 71.9085C448.087 70.847 447.815 69.4584 447.815 67.7471C447.815 66.0335 448.087 64.6427 448.63 63.5726C449.173 62.5003 449.905 61.7161 450.822 61.2178C451.742 60.7174 452.761 60.4683 453.884 60.4683Z" fill="#AFAFAF"/>
<path d="M466.769 60.4681C467.481 60.4681 468.087 60.585 468.587 60.8147C469.084 61.0486 469.45 61.2609 469.681 61.4581C470.27 61.9411 470.627 61.6162 470.752 60.4941H471.367C471.33 60.9923 471.304 61.588 471.287 62.2747C471.267 62.9593 471.259 63.8843 471.259 65.0433H470.644C470.536 64.3847 470.354 63.7413 470.097 63.1174C469.837 62.4935 469.458 61.978 468.961 61.5794C468.461 61.1764 467.81 60.975 467.007 60.975C466.384 60.975 465.862 61.1483 465.447 61.4992C465.025 61.8458 464.817 62.3592 464.817 63.0373C464.817 63.5724 464.977 64.0316 465.298 64.415C465.62 64.7985 466.038 65.1559 466.553 65.4852C467.072 65.8166 467.63 66.1762 468.24 66.5683C469.253 67.2291 470.118 67.8985 470.832 68.5743C471.544 69.2546 471.901 70.1471 471.901 71.254C471.901 72.0729 471.685 72.7618 471.259 73.3142C470.832 73.8666 470.274 74.2869 469.59 74.5728C468.9 74.8566 468.149 74.9996 467.329 74.9996C466.938 74.9996 466.568 74.9671 466.219 74.9064C465.873 74.8436 465.54 74.7504 465.218 74.6248C465.038 74.536 464.856 74.4277 464.67 74.3042C464.482 74.1785 464.3 74.0464 464.121 73.9013C463.943 73.7605 463.783 73.7648 463.642 73.9164C463.497 74.0659 463.389 74.367 463.32 74.8111H462.705C462.742 74.2392 462.766 73.546 462.786 72.7228C462.803 71.9039 462.811 70.8143 462.811 69.4582H463.426C463.551 70.4568 463.731 71.3342 463.96 72.0816C464.194 72.8311 464.56 73.416 465.057 73.8363C465.555 74.2544 466.252 74.4645 467.143 74.4645C467.678 74.4645 468.208 74.276 468.731 73.9013C469.257 73.5265 469.521 72.8679 469.521 71.9213C469.521 71.1371 469.236 70.4937 468.667 69.9933C468.095 69.495 467.373 68.9686 466.501 68.4162C465.858 68.0046 465.259 67.5952 464.696 67.1857C464.134 66.7741 463.681 66.3106 463.333 65.7928C462.985 65.2751 462.811 64.6512 462.811 63.919C462.811 63.1174 462.995 62.461 463.361 61.952C463.725 61.4429 464.211 61.0681 464.817 60.8277C465.423 60.5894 466.074 60.4681 466.769 60.4681Z" fill="#AFAFAF"/>
<path d="M0 65.9748L45.9775 59.5517V70.2576L0 65.9748Z" fill="#35B39A"/>
<path d="M525 64.6527L479.022 71.0779V60.3699L525 64.6527Z" fill="#35B39A"/>
</g>
<defs>
<clipPath id="clip0">
<rect width="525" height="75" fill="white"/>
</clipPath>
</defs>
</svg>
