<svg width="18" height="20" viewBox="0 0 18 20" fill="none" xmlns="http://www.w3.org/2000/svg">
<path d="M8.70968 10C11.4587 10 13.6866 7.76172 13.6866 5C13.6866 2.23828 11.4587 0 8.70968 0C5.96069 0 3.73272 2.23828 3.73272 5C3.73272 7.76172 5.96069 10 8.70968 10ZM12.1935 11.25H11.5442C10.681 11.6484 9.72062 11.875 8.70968 11.875C7.69873 11.875 6.74222 11.6484 5.87514 11.25H5.22581C2.34073 11.25 0 13.6016 0 16.5V18.125C0 19.1602 0.835974 20 1.86636 20H15.553C16.5834 20 17.4194 19.1602 17.4194 18.125V16.5C17.4194 13.6016 15.0786 11.25 12.1935 11.25Z" fill="white"/>
</svg>
