<svg width="16" height="16" viewBox="0 0 16 16" fill="none" xmlns="http://www.w3.org/2000/svg">
<path d="M8 0C3.57874 0 0 3.57803 0 8C0 12.4213 3.57803 16 8 16C9.55335 16 11.0755 15.5439 12.368 14.7025C12.7553 14.4504 12.8398 13.919 12.5471 13.5615L12.2188 13.1604C11.9714 12.8581 11.5356 12.784 11.2068 12.9949C10.2555 13.6051 9.13916 13.9355 8 13.9355C4.72716 13.9355 2.06452 11.2728 2.06452 8C2.06452 4.72716 4.72716 2.06452 8 2.06452C11.2303 2.06452 13.9355 3.92319 13.9355 7.22581C13.9355 8.47697 13.2551 9.79813 12.059 9.92558C11.4994 9.91094 11.5135 9.51084 11.6243 8.95706L12.3802 5.05029C12.4727 4.57258 12.1067 4.12903 11.6202 4.12903H10.1692C10.062 4.12903 9.95864 4.16847 9.87872 4.23982C9.79881 4.31118 9.74796 4.40945 9.73587 4.5159L9.73555 4.51887C9.26145 3.94142 8.43077 3.81645 7.801 3.81645C5.39519 3.81645 3.35484 5.824 3.35484 8.70226C3.35484 10.8088 4.54145 12.1174 6.45161 12.1174C7.32206 12.1174 8.30223 11.613 8.87068 10.8809C9.17784 11.981 10.1808 11.981 11.1516 11.981C14.6648 11.981 16 9.6709 16 7.22581C16 2.82752 12.4524 0 8 0ZM7.30065 9.82032C6.58294 9.82032 6.1371 9.31635 6.1371 8.50513C6.1371 7.05374 7.12997 6.15903 8.02839 6.15903C8.74748 6.15903 9.17681 6.65068 9.17681 7.47419C9.17681 8.92777 8.08406 9.82032 7.30065 9.82032Z" fill="#777777"/>
</svg>
