<svg width="69" height="55" viewBox="0 0 69 55" fill="none" xmlns="http://www.w3.org/2000/svg">
<path d="M67.0917 29.1221L54.6717 24.2881C54.2297 24.1162 53.3133 23.8906 52.2783 24.2881L39.8583 29.1221C38.7047 29.5732 37.95 30.626 37.95 31.7969C37.95 43.7852 45.3567 52.0781 52.2783 54.7744C53.3133 55.1719 54.2189 54.9463 54.6717 54.7744C60.2025 52.626 69 45.1709 69 31.7969C69 30.626 68.2453 29.5732 67.0917 29.1221ZM53.475 49.6719V29.3584L63.7711 33.3652C63.1673 42.7217 57.2053 47.9102 53.475 49.6719ZM24.15 27.5C31.7723 27.5 37.95 21.3447 37.95 13.75C37.95 6.15527 31.7723 0 24.15 0C16.5277 0 10.35 6.15527 10.35 13.75C10.35 21.3447 16.5277 27.5 24.15 27.5ZM34.5 31.7969C34.5 31.5283 34.5863 31.2812 34.6186 31.0234C34.3491 31.0127 34.0903 30.9375 33.81 30.9375H32.0095C29.6161 32.0332 26.9531 32.6562 24.15 32.6562C21.3469 32.6562 18.6947 32.0332 16.2905 30.9375H14.49C6.49031 30.9375 0 37.4043 0 45.375V49.8438C0 52.6904 2.31797 55 5.175 55H43.125C43.8581 55 44.5589 54.8389 45.195 54.5703C39.3731 49.9619 34.5 42.0342 34.5 31.7969Z" fill="white"/>
</svg>
