<svg width="42" height="55" viewBox="0 0 42 55" fill="none" xmlns="http://www.w3.org/2000/svg">
<path d="M40.2966 11.2793L29.8323 0.751953C29.3513 0.268555 28.6993 0 28.0152 0H27.3632V13.75H41.0448V13.0947C41.0448 12.418 40.7776 11.7627 40.2966 11.2793ZM23.9428 14.6094V0H2.5653C1.1437 0 0 1.14941 0 2.57812V52.4219C0 53.8506 1.1437 55 2.5653 55H38.4795C39.9011 55 41.0448 53.8506 41.0448 52.4219V17.1875H26.5081C25.0972 17.1875 23.9428 16.0273 23.9428 14.6094ZM6.8408 7.73438C6.8408 7.25957 7.22345 6.875 7.6959 6.875H16.2469C16.7193 6.875 17.102 7.25957 17.102 7.73438V9.45312C17.102 9.92793 16.7193 10.3125 16.2469 10.3125H7.6959C7.22345 10.3125 6.8408 9.92793 6.8408 9.45312V7.73438ZM6.8408 16.3281V14.6094C6.8408 14.1346 7.22345 13.75 7.6959 13.75H16.2469C16.7193 13.75 17.102 14.1346 17.102 14.6094V16.3281C17.102 16.8029 16.7193 17.1875 16.2469 17.1875H7.6959C7.22345 17.1875 6.8408 16.8029 6.8408 16.3281ZM22.2326 44.6746V47.2656C22.2326 47.7404 21.8499 48.125 21.3775 48.125H19.6673C19.1948 48.125 18.8122 47.7404 18.8122 47.2656V44.6563C17.6054 44.594 16.4318 44.1708 15.4591 43.4371C15.0423 43.1224 15.0209 42.495 15.3982 42.133L16.6541 40.9288C16.9502 40.6452 17.3906 40.6323 17.7369 40.8504C18.1506 41.1104 18.6198 41.25 19.1072 41.25H22.1118C22.8066 41.25 23.3731 40.6141 23.3731 39.8331C23.3731 39.1939 22.9872 38.6311 22.4357 38.4656L17.6257 37.0154C15.6387 36.416 14.2502 34.4996 14.2502 32.3544C14.2502 29.7204 16.2864 27.5806 18.8111 27.5129V24.9219C18.8111 24.4471 19.1938 24.0625 19.6662 24.0625H21.3764C21.8489 24.0625 22.2315 24.4471 22.2315 24.9219V27.5312C23.4383 27.5935 24.6119 28.0156 25.5846 28.7504C26.0014 29.0651 26.0228 29.6925 25.6455 30.0545L24.3896 31.2587C24.0935 31.5423 23.6531 31.5552 23.3068 31.3371C22.8932 31.0761 22.4239 30.9375 21.9365 30.9375H18.9319C18.2371 30.9375 17.6706 31.5734 17.6706 32.3544C17.6706 32.9936 18.0565 33.5564 18.608 33.7219L23.418 35.1721C25.405 35.7715 26.7935 37.6879 26.7935 39.8331C26.7935 42.4682 24.7573 44.6069 22.2326 44.6746Z" fill="white"/>
</svg>
