<svg width="60" height="42" viewBox="0 0 60 42" fill="none" xmlns="http://www.w3.org/2000/svg">
<path d="M59.6376 19.1911C53.9886 7.89372 42.8052 0.25 30 0.25C17.1948 0.25 6.00829 7.89906 0.362444 19.1922C0.124154 19.6754 0 20.2092 0 20.7505C0 21.2919 0.124154 21.8257 0.362444 22.3089C6.01141 33.6063 17.1948 41.25 30 41.25C42.8052 41.25 53.9917 33.6009 59.6376 22.3078C59.8758 21.8246 60 21.2908 60 20.7495C60 20.2081 59.8758 19.6743 59.6376 19.1911ZM30 36.125C27.0333 36.125 24.1332 35.2233 21.6664 33.5338C19.1997 31.8444 17.2771 29.4432 16.1418 26.6338C15.0065 23.8243 14.7094 20.7329 15.2882 17.7505C15.867 14.768 17.2956 12.0285 19.3934 9.87823C21.4912 7.728 24.1639 6.26367 27.0736 5.67043C29.9834 5.07718 32.9994 5.38166 35.7403 6.54535C38.4812 7.70905 40.8238 9.6797 42.4721 12.2081C44.1203 14.7365 45 17.7091 45 20.75C45.001 22.7694 44.6137 24.7691 43.8602 26.6349C43.1067 28.5007 42.0018 30.1961 40.6088 31.624C39.2157 33.0519 37.5617 34.1843 35.7414 34.9566C33.9211 35.729 31.9701 36.126 30 36.125ZM30 10.5C29.1074 10.5128 28.2206 10.6489 27.3635 10.9047C28.07 11.8887 28.409 13.0997 28.3191 14.3181C28.2292 15.5364 27.7163 16.6813 26.8734 17.5453C26.0306 18.4092 24.9135 18.9349 23.7249 19.0271C22.5363 19.1193 21.3549 18.7718 20.3948 18.0476C19.8481 20.1121 19.9468 22.3004 20.6769 24.3044C21.4071 26.3084 22.732 28.0273 24.4652 29.219C26.1984 30.4108 28.2525 31.0154 30.3385 30.9479C32.4245 30.8804 34.4373 30.144 36.0936 28.8425C37.75 27.541 38.9664 25.7398 39.5717 23.6926C40.177 21.6453 40.1408 19.4551 39.468 17.43C38.7953 15.405 37.52 13.6472 35.8215 12.4041C34.1231 11.1609 32.087 10.495 30 10.5Z" fill="white"/>
</svg>
