<svg width="74" height="55" viewBox="0 0 74 55" fill="none" xmlns="http://www.w3.org/2000/svg">
<path d="M71.0417 45.8333H9.16667V2.29167C9.16667 1.02552 8.14115 0 6.875 0H2.29167C1.02552 0 0 1.02552 0 2.29167V50.4167C0 52.9475 2.05247 55 4.58333 55H71.0417C72.3078 55 73.3333 53.9745 73.3333 52.7083V48.125C73.3333 46.8589 72.3078 45.8333 71.0417 45.8333ZM66.4583 4.58333H49.5487C46.4865 4.58333 44.9525 8.28581 47.1181 10.4514L51.7587 15.0921L41.25 25.6022L30.7413 15.0935C28.9509 13.3031 26.0491 13.3031 24.2602 15.0935L14.4217 24.9319C13.5266 25.8271 13.5266 27.278 14.4217 28.1732L17.6616 31.413C18.5568 32.3082 20.0077 32.3082 20.9029 31.413L27.5 24.8145L38.0087 35.3232C39.7991 37.1135 42.7009 37.1135 44.4898 35.3232L58.2398 21.5732L62.8805 26.2138C65.0461 28.3794 68.7486 26.8454 68.7486 23.7832V6.875C68.75 5.60885 67.7245 4.58333 66.4583 4.58333Z" fill="white"/>
</svg>
