<svg width="49" height="50" viewBox="0 0 49 50" fill="none" xmlns="http://www.w3.org/2000/svg">
<rect width="49" height="50" rx="6" fill="white"/>
<path d="M24.5 11.9922C17.5221 11.9922 11.8496 17.7637 11.84 24.8633C11.84 27.2949 12.5118 29.668 13.7788 31.709L14.0763 32.1973L12.7998 36.9434L17.5893 35.6641L18.05 35.9473C19.9888 37.1191 22.2156 37.7441 24.4904 37.7441H24.5C31.4683 37.7441 37.2944 31.9727 37.2944 24.873C37.2944 21.4355 35.8355 18.2031 33.4455 15.7715C31.046 13.3301 27.8786 11.9922 24.5 11.9922ZM31.9386 30.3906C31.6219 31.2988 30.1054 32.1191 29.3759 32.2266C28.1665 32.4121 27.2259 32.3145 24.8167 31.2598C21.0063 29.5801 18.5107 25.6738 18.3188 25.4199C18.1268 25.166 16.7638 23.3203 16.7638 21.416C16.7638 19.5117 17.7429 18.5742 18.098 18.1836C18.4435 17.793 18.8562 17.6953 19.1154 17.6953C19.365 17.6953 19.6241 17.6953 19.8449 17.7051C20.0752 17.7148 20.392 17.6172 20.6991 18.3691C21.0158 19.1406 21.7741 21.0449 21.8701 21.2402C21.9661 21.4355 22.0333 21.6602 21.8989 21.9141C21.1694 23.3984 20.392 23.3398 20.7855 24.0234C22.254 26.5918 23.7225 27.4805 25.9589 28.623C26.3429 28.8184 26.5636 28.7891 26.7844 28.5254C27.0051 28.2715 27.7346 27.3926 27.9841 27.0117C28.2337 26.6211 28.4929 26.6895 28.8384 26.8164C29.1839 26.9434 31.0556 27.8809 31.4395 28.0762C31.8234 28.2715 32.073 28.3691 32.169 28.5254C32.2554 28.7109 32.2554 29.4922 31.9386 30.3906ZM41.3929 3.125H7.60714C5.06362 3.125 3 5.22461 3 7.8125V42.1875C3 44.7754 5.06362 46.875 7.60714 46.875H41.3929C43.9364 46.875 46 44.7754 46 42.1875V7.8125C46 5.22461 43.9364 3.125 41.3929 3.125ZM24.4904 40.3516C21.9373 40.3516 19.4321 39.6973 17.215 38.4668L9.14286 40.625L11.3025 32.5977C9.9683 30.2539 9.26763 27.5879 9.26763 24.8535C9.27723 16.3184 16.1016 9.375 24.4904 9.375C28.56 9.375 32.3801 10.9863 35.2596 13.916C38.1295 16.8457 39.8571 20.7324 39.8571 24.873C39.8571 33.4082 32.8792 40.3516 24.4904 40.3516Z" fill="#35B39A"/>
</svg>
