<svg width="78" height="55" viewBox="0 0 78 55" fill="none" xmlns="http://www.w3.org/2000/svg">
<path d="M74.3668 37.9683C74.6835 36.2369 74.6835 34.4686 74.3668 32.7372L77.5096 30.9076C77.875 30.6988 78.0333 30.269 77.9115 29.8638C77.0954 27.2114 75.6945 24.8046 73.8673 22.8154C73.5872 22.5084 73.1365 22.4347 72.771 22.6434L69.6283 24.4731C68.3005 23.3311 66.7778 22.447 65.1334 21.8576V18.1983C65.1334 17.7808 64.841 17.4124 64.439 17.3264C61.7226 16.7124 58.9574 16.737 56.375 17.3264C55.973 17.4124 55.6807 17.7808 55.6807 18.1983V21.8576C54.0362 22.447 52.5135 23.3311 51.1858 24.4731L48.043 22.6434C47.6898 22.4347 47.2269 22.5084 46.9467 22.8154C45.1195 24.8046 43.7187 27.2114 42.9025 29.8638C42.7807 30.269 42.9512 30.6988 43.3045 30.9076L46.4473 32.7372C46.1305 34.4686 46.1305 36.2369 46.4473 37.9683L43.3045 39.7979C42.939 40.0067 42.7807 40.4365 42.9025 40.8417C43.7187 43.4941 45.1195 45.8886 46.9467 47.8902C47.2269 48.1971 47.6776 48.2708 48.043 48.0621L51.1858 46.2324C52.5135 47.3744 54.0362 48.2585 55.6807 48.848V52.5073C55.6807 52.9248 55.973 53.2931 56.375 53.3791C59.0914 53.9931 61.8566 53.9685 64.439 53.3791C64.841 53.2931 65.1334 52.9248 65.1334 52.5073V48.848C66.7778 48.2585 68.3005 47.3744 69.6283 46.2324L72.771 48.0621C73.1243 48.2708 73.5872 48.1971 73.8673 47.8902C75.6945 45.9009 77.0954 43.4941 77.9115 40.8417C78.0333 40.4365 77.8628 40.0067 77.5096 39.7979L74.3668 37.9683ZM60.4192 41.3083C57.1546 41.3083 54.5113 38.6314 54.5113 35.3528C54.5113 32.0741 57.1668 29.3972 60.4192 29.3972C63.6716 29.3972 66.3271 32.0741 66.3271 35.3528C66.3271 38.6314 63.6838 41.3083 60.4192 41.3083ZM11.694 23.5644C15.994 23.5644 19.4901 20.0402 19.4901 15.7055C19.4901 11.3708 15.994 7.84662 11.694 7.84662C7.39404 7.84662 3.89801 11.3708 3.89801 15.7055C3.89801 20.0402 7.39404 23.5644 11.694 23.5644ZM38.9801 27.4939C39.2116 27.4939 39.4308 27.4325 39.6623 27.4202C40.6733 24.7555 42.1594 22.2505 44.0841 20.1507C44.9855 19.1683 46.2645 18.6035 47.6045 18.6035C48.445 18.6035 49.2733 18.8245 49.992 19.2543L50.9543 19.8192C51.0518 19.7578 51.1492 19.7086 51.2467 19.6472C52.0994 17.8544 52.611 15.8651 52.611 13.7531C52.611 6.15204 46.5082 0 38.9679 0C31.4277 0 25.3371 6.13976 25.3371 13.7408C25.3371 21.3418 31.4399 27.4939 38.9801 27.4939ZM51.7948 51.3775C51.5147 51.2302 51.2345 51.0583 50.9665 50.8986C49.9677 51.4881 49.1028 52.102 47.6167 52.102C46.2889 52.102 45.0099 51.5372 44.0963 50.5548C41.8671 48.1235 40.1617 45.1641 39.1994 42.0083C37.896 37.7718 42.2325 35.9053 42.3422 35.8317C42.33 35.5124 42.33 35.1931 42.3422 34.8739L41.3798 34.309C40.917 34.0388 40.5272 33.695 40.1861 33.3144C39.7841 33.3389 39.3943 33.388 38.9923 33.388C35.9957 33.388 33.194 32.6513 30.6481 31.4233H29.6371C21.8776 31.4233 15.5921 37.7595 15.5921 45.5693V49.1058C15.5921 52.3599 18.211 55 21.4391 55H52.5501C52.0994 54.2632 51.7948 53.4282 51.7948 52.5073V51.3775ZM21.0858 29.7779C19.6728 28.3657 17.736 27.4939 15.5921 27.4939H7.79603C3.49603 27.4939 0 31.0181 0 35.3528V39.2822C0 41.4557 1.74192 43.2117 3.89801 43.2117H11.9255C12.6929 37.3912 16.1768 32.4916 21.0858 29.7779Z" fill="white"/>
</svg>
