<svg width="14" height="16" viewBox="0 0 14 16" fill="none" xmlns="http://www.w3.org/2000/svg">
<path d="M13.625 15H13V0.75C13 0.335781 12.6642 0 12.25 0H1.75C1.33578 0 1 0.335781 1 0.75V15H0.375C0.167906 15 0 15.1679 0 15.375V16H14V15.375C14 15.1679 13.8321 15 13.625 15ZM4 2.375C4 2.16791 4.16791 2 4.375 2H5.625C5.83209 2 6 2.16791 6 2.375V3.625C6 3.83209 5.83209 4 5.625 4H4.375C4.16791 4 4 3.83209 4 3.625V2.375ZM4 5.375C4 5.16791 4.16791 5 4.375 5H5.625C5.83209 5 6 5.16791 6 5.375V6.625C6 6.83209 5.83209 7 5.625 7H4.375C4.16791 7 4 6.83209 4 6.625V5.375ZM5.625 10H4.375C4.16791 10 4 9.83209 4 9.625V8.375C4 8.16791 4.16791 8 4.375 8H5.625C5.83209 8 6 8.16791 6 8.375V9.625C6 9.83209 5.83209 10 5.625 10ZM8 15H6V12.375C6 12.1679 6.16791 12 6.375 12H7.625C7.83209 12 8 12.1679 8 12.375V15ZM10 9.625C10 9.83209 9.83209 10 9.625 10H8.375C8.16791 10 8 9.83209 8 9.625V8.375C8 8.16791 8.16791 8 8.375 8H9.625C9.83209 8 10 8.16791 10 8.375V9.625ZM10 6.625C10 6.83209 9.83209 7 9.625 7H8.375C8.16791 7 8 6.83209 8 6.625V5.375C8 5.16791 8.16791 5 8.375 5H9.625C9.83209 5 10 5.16791 10 5.375V6.625ZM10 3.625C10 3.83209 9.83209 4 9.625 4H8.375C8.16791 4 8 3.83209 8 3.625V2.375C8 2.16791 8.16791 2 8.375 2H9.625C9.83209 2 10 2.16791 10 2.375V3.625Z" fill="#777777"/>
</svg>
