<svg width="59" height="55" viewBox="0 0 59 55" fill="none" xmlns="http://www.w3.org/2000/svg">
<path d="M56.781 30.9388H31.2524L48.2539 47.9147C48.9037 48.5635 49.9731 48.6161 50.6412 47.9877C54.8047 44.0711 57.6686 38.7913 58.5088 32.8563C58.653 31.8401 57.8084 30.9388 56.781 30.9388ZM55.078 23.9779C54.1915 11.1452 43.9215 0.89075 31.0695 0.00559337C30.0884 -0.0620824 29.2621 0.763992 29.2621 1.74583V25.7825H53.3362C54.3195 25.7825 55.1457 24.9575 55.078 23.9779ZM24.0981 30.9388V5.44866C24.0981 4.42278 23.1955 3.57952 22.1788 3.72346C9.35802 5.53245 -0.441805 16.7161 0.0143508 30.1192C0.483417 43.8842 12.3532 55.1721 26.1454 54.9992C31.5676 54.9315 36.5778 53.1869 40.6972 50.2694C41.5471 49.6678 41.6031 48.4185 40.8661 47.6826L24.0981 30.9388Z" fill="white"/>
</svg>
