<svg width="69" height="55" viewBox="0 0 69 55" fill="none" xmlns="http://www.w3.org/2000/svg">
<path d="M53.475 24.0625C44.8942 24.0625 37.95 30.9815 37.95 39.5312C37.95 48.081 44.8942 55 53.475 55C62.0558 55 69 48.081 69 39.5312C69 30.9815 62.0558 24.0625 53.475 24.0625ZM60.375 40.2069C60.375 40.7806 59.9039 41.25 59.3281 41.25H52.7979C52.2222 41.25 51.7511 40.7806 51.7511 40.2069V31.9816C51.7511 31.408 52.2222 30.9386 52.7979 30.9386H54.1531C54.7289 30.9386 55.2 31.408 55.2 31.9816V37.8125H59.3281C59.9039 37.8125 60.375 38.2819 60.375 38.8556V40.2069ZM53.475 20.625C54.0572 20.625 54.6308 20.6604 55.2 20.712V15.4688C55.2 12.7188 52.785 10.3125 50.025 10.3125H41.4V5.15625C41.4 2.40625 38.985 0 36.225 0H18.975C16.215 0 13.8 2.40625 13.8 5.15625V10.3125H5.175C2.415 10.3125 0 12.7188 0 15.4688V24.0625H42.5989C45.6823 21.9044 49.4288 20.625 53.475 20.625ZM34.5 10.3125H20.7V6.875H34.5V10.3125ZM35.2353 34.375H22.425C21.4719 34.375 20.7 33.6059 20.7 32.6562V27.5H0V42.9688C0 45.7188 2.415 48.125 5.175 48.125H36.5948C35.2655 45.5426 34.5 42.6271 34.5 39.5312C34.5 37.7416 34.7674 36.0164 35.2353 34.375Z" fill="#277364"/>
</svg>
