<svg width="60" height="36" viewBox="0 0 60 36" fill="none" xmlns="http://www.w3.org/2000/svg">
<path d="M40.7531 0.25H32.7C31.95 0.25 31.2281 0.523338 30.675 1.01535L21.4594 9.2155C21.45 9.22461 21.4406 9.24283 21.4313 9.25194C19.875 10.6733 19.9031 12.942 21.2344 14.3543C22.425 15.6207 24.9281 15.9578 26.4938 14.6003C26.5031 14.5912 26.5219 14.5912 26.5312 14.582L34.0219 7.91259C34.6312 7.37502 35.5875 7.41147 36.1406 8.0037C36.7031 8.59593 36.6562 9.51617 36.0469 10.0628L33.6 12.2404L47.25 23.01C47.5219 23.2286 47.7656 23.4655 47.9906 23.7115V6.08122L42.8719 1.10646C42.3187 0.559784 41.55 0.25 40.7531 0.25ZM51 6.09944V26.4996C51 28.1123 52.3406 29.4152 54 29.4152H60V6.09944H51ZM55.5 26.4996C54.675 26.4996 54 25.8436 54 25.0418C54 24.24 54.675 23.584 55.5 23.584C56.325 23.584 57 24.24 57 25.0418C57 25.8436 56.325 26.4996 55.5 26.4996ZM0 29.4061H6C7.65938 29.4061 9 28.1032 9 26.4905V6.09944H0V29.4061ZM4.5 23.584C5.325 23.584 6 24.24 6 25.0418C6 25.8436 5.325 26.4996 4.5 26.4996C3.675 26.4996 3 25.8436 3 25.0418C3 24.2309 3.675 23.584 4.5 23.584ZM45.3656 25.2787L31.3688 14.2358L28.5563 16.7414C25.7719 19.2106 21.5062 18.9737 19.0219 16.3405C16.5 13.6618 16.6969 9.51617 19.4344 7.07435L27.1031 0.25H19.2469C18.45 0.25 17.6906 0.559784 17.1281 1.10646L12 6.08122V26.4814H13.7156L22.2 33.9435C24.7688 35.9753 28.5469 35.5926 30.6375 33.0962L30.6562 33.0779L32.3344 34.4902C33.825 35.6746 36.0281 35.4469 37.2375 33.9982L40.1813 30.4812L40.6875 30.8821C41.9719 31.8935 43.8656 31.7112 44.9062 30.4539L45.7969 29.3879C46.8469 28.1305 46.65 26.2991 45.3656 25.2787Z" fill="white"/>
</svg>
