<svg width="79" height="55" viewBox="0 0 79 55" fill="none" xmlns="http://www.w3.org/2000/svg">
<path d="M11.8286 23.5714C16.178 23.5714 19.7143 20.048 19.7143 15.7143C19.7143 11.3806 16.178 7.85714 11.8286 7.85714C7.47911 7.85714 3.94286 11.3806 3.94286 15.7143C3.94286 20.048 7.47911 23.5714 11.8286 23.5714ZM67.0286 23.5714C71.378 23.5714 74.9143 20.048 74.9143 15.7143C74.9143 11.3806 71.378 7.85714 67.0286 7.85714C62.6791 7.85714 59.1429 11.3806 59.1429 15.7143C59.1429 20.048 62.6791 23.5714 67.0286 23.5714ZM70.9714 27.5H63.0857C60.9171 27.5 58.958 28.3717 57.5287 29.7835C62.4943 32.4967 66.0182 37.3951 66.7821 43.2143H74.9143C77.0952 43.2143 78.8571 41.4587 78.8571 39.2857V35.3571C78.8571 31.0234 75.3209 27.5 70.9714 27.5ZM39.4286 27.5C47.0555 27.5 53.2286 21.3493 53.2286 13.75C53.2286 6.15067 47.0555 0 39.4286 0C31.8016 0 25.6286 6.15067 25.6286 13.75C25.6286 21.3493 31.8016 27.5 39.4286 27.5ZM48.8914 31.4286H47.8687C45.3059 32.6562 42.4596 33.3929 39.4286 33.3929C36.3975 33.3929 33.5636 32.6562 30.9884 31.4286H29.9657C22.1293 31.4286 15.7714 37.7634 15.7714 45.5714V49.1071C15.7714 52.3605 18.4205 55 21.6857 55H57.1714C60.4366 55 63.0857 52.3605 63.0857 49.1071V45.5714C63.0857 37.7634 56.7279 31.4286 48.8914 31.4286ZM21.3284 29.7835C19.8991 28.3717 17.94 27.5 15.7714 27.5H7.88571C3.53625 27.5 0 31.0234 0 35.3571V39.2857C0 41.4587 1.76196 43.2143 3.94286 43.2143H12.0627C12.8389 37.3951 16.3629 32.4967 21.3284 29.7835Z" fill="white"/>
</svg>
