<svg width="59" height="47" viewBox="0 0 59 47" fill="none" xmlns="http://www.w3.org/2000/svg">
<path d="M24.769 17.6153C23.1663 17.6153 21.855 18.9372 21.855 20.5528V27.8966C21.855 28.7081 21.203 29.3653 20.398 29.3653C19.593 29.3653 18.941 28.7081 18.941 27.8966V20.8695C18.941 19.2732 19.3708 17.7053 20.1876 16.3357L27.2678 4.43972C28.0955 3.04808 27.6493 1.24427 26.2688 0.408919C24.9529 -0.38696 23.2892 0.0141919 22.4169 1.25437C22.3986 1.27548 22.3604 1.27365 22.3449 1.29843L11.6669 17.4455C10.7053 18.8996 10.199 20.5895 10.199 22.3319V29.6967L1.99245 32.4543C1.41217 32.6489 0.907411 33.0228 0.549776 33.5229C0.192142 34.0229 -0.000212436 34.6238 1.76063e-07 35.2403V44.0528C1.76063e-07 45.0461 0.775853 46.9903 2.914 46.9903C3.15896 46.9903 3.40665 46.9591 3.64796 46.8958L19.9655 42.6162C24.5104 41.3063 27.683 37.0662 27.683 32.3028V20.5528C27.683 18.9372 26.3717 17.6153 24.769 17.6153ZM56.2876 32.4616L48.081 29.7041V22.3392C48.081 20.5969 47.5747 18.9069 46.6131 17.4528L35.9351 1.30669C35.9187 1.28191 35.8814 1.28466 35.8631 1.26263C34.9908 0.0224536 33.3271 -0.378699 32.0112 0.41718C30.6307 1.25161 30.1845 3.05634 31.0122 4.44798L38.0924 16.3439C38.9092 17.7135 39.339 19.2814 39.339 20.8778V27.9048C39.339 28.7163 38.687 29.3736 37.882 29.3736C37.077 29.3736 36.425 28.7163 36.425 27.9048V20.5611C36.425 18.9455 35.1137 17.6236 33.511 17.6236C31.9083 17.6236 30.597 18.9455 30.597 20.5611V32.3111C30.597 37.0744 33.7696 41.3145 38.3145 42.6236L54.632 46.9031C54.8743 46.9665 55.122 46.9977 55.366 46.9977C57.5041 46.9977 58.28 45.0534 58.28 44.0602V35.2477C58.28 33.9836 57.4777 32.8619 56.2876 32.4616Z" fill="white"/>
</svg>
