<svg width="55" height="55" viewBox="0 0 55 55" fill="none" xmlns="http://www.w3.org/2000/svg">
<path d="M54.9033 40.6914L52.0352 23.5039C51.7559 21.8496 50.3272 20.6357 48.6406 20.6357H22.3438V13.7607H32.6563C33.6016 13.7607 34.375 12.9873 34.375 12.042V1.71875C34.375 0.773438 33.6016 0 32.6563 0H5.15625C4.21094 0 3.4375 0.773438 3.4375 1.71875V12.0312C3.4375 12.9766 4.21094 13.75 5.15625 13.75H15.4688V20.625H6.34863C4.67285 20.625 3.2334 21.8389 2.9541 23.4932L0.0859375 40.6807C0.0214844 41.0566 -0.0107422 41.4326 -0.0107422 41.8086V51.5625C-0.0107422 53.4639 1.52539 55 3.42676 55H51.5518C53.4531 55 54.9893 53.4639 54.9893 51.5625V41.8193C55 41.4434 54.9678 41.0674 54.9033 40.6914ZM30.0781 26.6406C30.0781 25.6953 30.8516 24.9219 31.7969 24.9219H33.5156C34.4609 24.9219 35.2344 25.6953 35.2344 26.6406V28.3594C35.2344 29.3047 34.4609 30.0781 33.5156 30.0781H31.7969C30.8516 30.0781 30.0781 29.3047 30.0781 28.3594V26.6406ZM26.6406 33.5156H28.3594C29.3047 33.5156 30.0781 34.2891 30.0781 35.2344V36.9531C30.0781 37.8984 29.3047 38.6719 28.3594 38.6719H26.6406C25.6953 38.6719 24.9219 37.8984 24.9219 36.9531V35.2344C24.9219 34.2891 25.6953 33.5156 26.6406 33.5156ZM23.2031 24.9219C24.1484 24.9219 24.9219 25.6953 24.9219 26.6406V28.3594C24.9219 29.3047 24.1484 30.0781 23.2031 30.0781H21.4844C20.5391 30.0781 19.7656 29.3047 19.7656 28.3594V26.6406C19.7656 25.6953 20.5391 24.9219 21.4844 24.9219H23.2031ZM8.59375 8.59375V5.15625H29.2188V8.59375H8.59375ZM12.8906 30.0781H11.1719C10.2266 30.0781 9.45313 29.3047 9.45313 28.3594V26.6406C9.45313 25.6953 10.2266 24.9219 11.1719 24.9219H12.8906C13.8359 24.9219 14.6094 25.6953 14.6094 26.6406V28.3594C14.6094 29.3047 13.8359 30.0781 12.8906 30.0781ZM14.6094 36.9531V35.2344C14.6094 34.2891 15.3828 33.5156 16.3281 33.5156H18.0469C18.9922 33.5156 19.7656 34.2891 19.7656 35.2344V36.9531C19.7656 37.8984 18.9922 38.6719 18.0469 38.6719H16.3281C15.3828 38.6719 14.6094 37.8984 14.6094 36.9531ZM37.8125 48.9844C37.8125 49.457 37.4258 49.8438 36.9531 49.8438H18.0469C17.5742 49.8438 17.1875 49.457 17.1875 48.9844V47.2656C17.1875 46.793 17.5742 46.4062 18.0469 46.4062H36.9531C37.4258 46.4062 37.8125 46.793 37.8125 47.2656V48.9844ZM40.3906 36.9531C40.3906 37.8984 39.6172 38.6719 38.6719 38.6719H36.9531C36.0078 38.6719 35.2344 37.8984 35.2344 36.9531V35.2344C35.2344 34.2891 36.0078 33.5156 36.9531 33.5156H38.6719C39.6172 33.5156 40.3906 34.2891 40.3906 35.2344V36.9531ZM45.5469 28.3594C45.5469 29.3047 44.7734 30.0781 43.8281 30.0781H42.1094C41.1641 30.0781 40.3906 29.3047 40.3906 28.3594V26.6406C40.3906 25.6953 41.1641 24.9219 42.1094 24.9219H43.8281C44.7734 24.9219 45.5469 25.6953 45.5469 26.6406V28.3594Z" fill="white"/>
</svg>
