<svg width="15" height="16" viewBox="0 0 15 16" fill="none" xmlns="http://www.w3.org/2000/svg">
<path d="M14.572 11.3062L11.2907 9.80614C11.1505 9.74242 10.9948 9.72899 10.8468 9.76788C10.6989 9.80677 10.5668 9.89587 10.4704 10.0218L9.01728 11.9156C6.73674 10.7686 4.90143 8.81089 3.82617 6.37827L5.60156 4.82824C5.71983 4.72564 5.80353 4.58473 5.84001 4.42684C5.87648 4.26896 5.86374 4.10269 5.80371 3.95322L4.39746 0.453162C4.33158 0.292037 4.21505 0.160484 4.06797 0.0811864C3.9209 0.00188914 3.75249 -0.0201818 3.5918 0.0187795L0.544922 0.768793C0.389991 0.806955 0.251761 0.900007 0.152793 1.03276C0.0538257 1.16552 -3.56897e-05 1.33013 1.77428e-08 1.49974C1.77428e-08 9.51551 6.09082 16 13.5937 16C13.7528 16.0001 13.9072 15.9427 14.0317 15.8371C14.1562 15.7315 14.2435 15.5841 14.2793 15.4187L14.9824 12.1687C15.0187 11.9964 14.9976 11.8161 14.9227 11.6587C14.8478 11.5012 14.7237 11.3766 14.572 11.3062Z" fill="#777777"/>
</svg>
