<svg width="44" height="50" viewBox="0 0 44 50" fill="none" xmlns="http://www.w3.org/2000/svg">
<path d="M44 37.5C41.248 37.5 40.9298 34.375 36.683 34.375C32.4176 34.375 32.0842 37.5 29.3415 37.5C26.6215 37.5 26.2523 34.375 22 34.375C17.7923 34.375 17.3625 37.5 14.683 37.5C11.9185 37.5 11.6186 34.375 7.34152 34.375C3.06458 34.375 2.75953 37.5 0 37.5V29.6875C0 27.0996 2.11161 25 4.71429 25H6.28571V10.9375H12.5714V25H18.8571V10.9375H25.1429V25H31.4286V10.9375H37.7143V25H39.2857C41.8884 25 44 27.0996 44 29.6875V37.5ZM44 50H0V40.625C4.25818 40.625 4.59319 37.5 7.34152 37.5C10.0867 37.5 10.411 40.625 14.683 40.625C18.8908 40.625 19.3204 37.5 22 37.5C24.7645 37.5 25.0644 40.625 29.3415 40.625C33.5998 40.625 33.9347 37.5 36.683 37.5C39.3827 37.5 39.7524 40.625 44 40.625V50ZM9.42857 9.375C7.68527 9.375 6.28571 7.9834 6.28571 6.25C6.28571 3.22266 9.42857 4.00391 9.42857 0C10.6071 0 12.5714 2.88086 12.5714 5.46875C12.5714 8.05664 11.1719 9.375 9.42857 9.375ZM22 9.375C20.2567 9.375 18.8571 7.9834 18.8571 6.25C18.8571 3.22266 22 4.00391 22 0C23.1786 0 25.1429 2.88086 25.1429 5.46875C25.1429 8.05664 23.7433 9.375 22 9.375ZM34.5714 9.375C32.8281 9.375 31.4286 7.9834 31.4286 6.25C31.4286 3.22266 34.5714 4.00391 34.5714 0C35.75 0 37.7143 2.88086 37.7143 5.46875C37.7143 8.05664 36.3147 9.375 34.5714 9.375Z" fill="white"/>
</svg>
