<svg width="66" height="55" viewBox="0 0 66 55" fill="none" xmlns="http://www.w3.org/2000/svg">
<path d="M17.7731 0.449322C17.6312 0.306902 17.4626 0.1939 17.2769 0.116795C17.0912 0.0396905 16.8921 0 16.691 0C16.49 0 16.2909 0.0396905 16.1052 0.116795C15.9195 0.1939 15.7509 0.306902 15.6089 0.449322L7.50208 8.50907L4.61223 5.69306C4.47031 5.55064 4.30166 5.43764 4.11597 5.36054C3.93028 5.28343 3.73119 5.24374 3.53013 5.24374C3.32907 5.24374 3.12998 5.28343 2.94429 5.36054C2.7586 5.43764 2.58995 5.55064 2.44803 5.69306L0.449322 7.69431C0.306902 7.83624 0.1939 8.00488 0.116795 8.19058C0.0396904 8.37627 0 8.57535 0 8.77642C0 8.97748 0.0396904 9.17657 0.116795 9.36226C0.1939 9.54795 0.306902 9.71659 0.449322 9.85852L6.50782 15.8928C6.81023 16.1803 7.21152 16.3406 7.62875 16.3406C8.04599 16.3406 8.44727 16.1803 8.74968 15.8928L10.7344 13.9043L19.9259 4.71408C20.2123 4.42747 20.3741 4.03949 20.3762 3.63433C20.3784 3.22917 20.2207 2.8395 19.9373 2.54987L17.7731 0.449322ZM17.7731 20.7152C17.6312 20.5728 17.4626 20.4598 17.2769 20.3827C17.0912 20.3056 16.8921 20.2659 16.691 20.2659C16.49 20.2659 16.2909 20.3056 16.1052 20.3827C15.9195 20.4598 15.7509 20.5728 15.6089 20.7152L7.50208 28.8271L4.61223 26.0137C4.47031 25.8712 4.30166 25.7582 4.11597 25.6811C3.93028 25.604 3.73119 25.5643 3.53013 25.5643C3.32907 25.5643 3.12998 25.604 2.94429 25.6811C2.7586 25.7582 2.58995 25.8712 2.44803 26.0137L0.449322 28.0111C0.306902 28.153 0.1939 28.3217 0.116795 28.5074C0.0396904 28.6931 0 28.8921 0 29.0932C0 29.2943 0.0396904 29.4934 0.116795 29.679C0.1939 29.8647 0.306902 30.0334 0.449322 30.1753L6.49254 36.2223C6.79474 36.5097 7.19582 36.67 7.61284 36.67C8.02986 36.67 8.43094 36.5097 8.73313 36.2223L10.7318 34.2249L19.9233 25.0309C20.2086 24.7463 20.3699 24.3605 20.372 23.9575C20.3742 23.5545 20.217 23.167 19.9348 22.8794L17.7731 20.7152ZM8.14752 42.7786C4.77518 42.7786 1.96172 45.5157 1.96172 48.8893C1.96172 52.2629 4.77773 55 8.14752 55C9.76818 55 11.3225 54.3562 12.4684 53.2102C13.6144 52.0642 14.2582 50.51 14.2582 48.8893C14.2582 47.2686 13.6144 45.7144 12.4684 44.5684C11.3225 43.4224 9.76818 42.7786 8.14752 42.7786ZM63.1438 44.8155H26.4796C25.9394 44.8155 25.4213 45.0301 25.0393 45.4121C24.6573 45.7941 24.4427 46.3122 24.4427 46.8524V50.9262C24.4427 51.4664 24.6573 51.9845 25.0393 52.3665C25.4213 52.7485 25.9394 52.9631 26.4796 52.9631H63.1438C63.684 52.9631 64.2021 52.7485 64.5841 52.3665C64.9661 51.9845 65.1807 51.4664 65.1807 50.9262V46.8524C65.1807 46.3122 64.9661 45.7941 64.5841 45.4121C64.2021 45.0301 63.684 44.8155 63.1438 44.8155ZM63.1438 4.07755H26.4796C25.9394 4.07755 25.4213 4.29215 25.0393 4.67414C24.6573 5.05613 24.4427 5.57423 24.4427 6.11445V10.1882C24.4427 10.7285 24.6573 11.2466 25.0393 11.6285C25.4213 12.0105 25.9394 12.2251 26.4796 12.2251H63.1438C63.684 12.2251 64.2021 12.0105 64.5841 11.6285C64.9661 11.2466 65.1807 10.7285 65.1807 10.1882V6.11445C65.1807 5.57423 64.9661 5.05613 64.5841 4.67414C64.2021 4.29215 63.684 4.07755 63.1438 4.07755ZM63.1438 24.4465H26.4796C25.9394 24.4465 25.4213 24.6611 25.0393 25.0431C24.6573 25.4251 24.4427 25.9432 24.4427 26.4834V30.5572C24.4427 31.0974 24.6573 31.6155 25.0393 31.9975C25.4213 32.3795 25.9394 32.5941 26.4796 32.5941H63.1438C63.684 32.5941 64.2021 32.3795 64.5841 31.9975C64.9661 31.6155 65.1807 31.0974 65.1807 30.5572V26.4834C65.1807 25.9432 64.9661 25.4251 64.5841 25.0431C64.2021 24.6611 63.684 24.4465 63.1438 24.4465Z" fill="white"/>
</svg>
